millimetreA light 01.ufo
<glyph name="numbersign" format="1">
  <advance width="400"/>
  <unicode hex="0023"/>
  <outline>
    <contour>
      <point x="265" y="245" type="line"/>
      <point x="105" y="245" type="line"/>
      <point x="135" y="455" type="line"/>
      <point x="295" y="455" type="line"/>
    </contour>
    <contour>
      <point x="225.0" y="0.0" type="line"/>
      <point x="275.0" y="0.0" type="line"/>
      <point x="305.0" y="200.0" type="line"/>
      <point x="400.0" y="200.0" type="line"/>
      <point x="400.0" y="250.0" type="line"/>
      <point x="310.0" y="250.0" type="line"/>
      <point x="340.0" y="450.0" type="line"/>
      <point x="400.0" y="450.0" type="line"/>
      <point x="400.0" y="500.0" type="line"/>
      <point x="340" y="500" type="line"/>
      <point x="360.0" y="599.0" type="line"/>
      <point x="375.0" y="700.0" type="line"/>
      <point x="325.0" y="700.0" type="line"/>
      <point x="295.0" y="500.0" type="line"/>
      <point x="140" y="500" type="line"/>
      <point x="160.0" y="600.0" type="line"/>
      <point x="175.0" y="700.0" type="line"/>
      <point x="125.0" y="700.0" type="line"/>
      <point x="95.0" y="500.0" type="line"/>
      <point x="0.0" y="500.0" type="line"/>
      <point x="0.0" y="450.0" type="line"/>
      <point x="90.0" y="450.0" type="line"/>
      <point x="60.0" y="250.0" type="line"/>
      <point x="0.0" y="250.0" type="line"/>
      <point x="0.0" y="200.0" type="line"/>
      <point x="60" y="200" type="line"/>
      <point x="40.0" y="100.0" type="line"/>
      <point x="25.0" y="0.0" type="line"/>
      <point x="75.0" y="0.0" type="line"/>
      <point x="105.0" y="200.0" type="line"/>
      <point x="260" y="200" type="line"/>
      <point x="240.0" y="100.0" type="line"/>
    </contour>
  </outline>
</glyph>
<glyph name="dollar" format="1">
  <advance width="600"/>
  <unicode hex="0024"/>
  <outline>
    <contour>
      <point x="300" y="50" type="curve"/>
      <point x="170" y="50"/>
      <point x="120" y="75"/>
      <point x="120" y="240" type="curve" smooth="yes"/>
      <point x="120" y="250" type="line"/>
      <point x="75" y="250" type="line"/>
      <point x="75" y="220" type="line"/>
      <point x="75" y="60"/>
      <point x="145" y="0"/>
      <point x="270" y="0" type="curve" smooth="yes"/>
      <point x="300" y="0" type="line"/>
      <point x="465" y="0"/>
      <point x="520" y="70"/>
      <point x="520" y="190" type="curve"/>
      <point x="520" y="435"/>
      <point x="120" y="315"/>
      <point x="120" y="510" type="curve" smooth="yes"/>
      <point x="120" y="600"/>
      <point x="155" y="650"/>
      <point x="300" y="650" type="curve"/>
      <point x="430" y="650"/>
      <point x="475" y="625"/>
      <point x="475" y="460" type="curve" smooth="yes"/>
      <point x="475" y="450" type="line"/>
      <point x="520" y="450" type="line"/>
      <point x="520" y="480" type="line"/>
      <point x="520" y="640"/>
      <point x="450" y="700"/>
      <point x="330" y="700" type="curve" smooth="yes"/>
      <point x="300" y="700" type="line"/>
      <point x="135" y="700"/>
      <point x="75" y="630"/>
      <point x="75" y="510" type="curve" smooth="yes"/>
      <point x="75" y="265"/>
      <point x="475" y="385"/>
      <point x="475" y="190" type="curve" smooth="yes"/>
      <point x="475" y="100"/>
      <point x="440" y="50"/>
    </contour>
    <contour>
      <point x="275" y="-50" type="line"/>
      <point x="325" y="-50" type="line"/>
      <point x="325" y="750" type="line"/>
      <point x="275" y="750" type="line"/>
    </contour>
    <contour>
      <point x="300" y="650" type="move" name="top"/>
    </contour>
  </outline>
</glyph>
<glyph name="asterisk" format="1">
  <advance width="200"/>
  <unicode hex="002A"/>
  <outline>
    <contour>
      <point x="105" y="620" type="line"/>
      <point x="115" y="665" type="line"/>
      <point x="115" y="700" type="line"/>
      <point x="85" y="700" type="line"/>
      <point x="85" y="665" type="line" smooth="yes"/>
      <point x="95" y="620" type="line"/>
    </contour>
    <contour>
      <point x="95" y="620" type="line"/>
      <point x="85" y="610" type="line"/>
      <point x="80" y="600" type="line"/>
      <point x="80" y="590" type="line"/>
      <point x="90" y="580" type="line"/>
      <point x="110" y="580" type="line"/>
      <point x="120" y="590" type="line"/>
      <point x="120" y="600" type="line"/>
      <point x="115" y="610" type="line"/>
      <point x="105" y="620" type="line"/>
    </contour>
    <contour>
      <point x="85" y="610" type="line"/>
      <point x="45" y="635" type="line"/>
      <point x="10" y="645" type="line"/>
      <point x="0" y="620" type="line"/>
      <point x="35" y="605" type="line" smooth="yes"/>
      <point x="80" y="600" type="line"/>
    </contour>
    <contour>
      <point x="115" y="610" type="line"/>
      <point x="120" y="600" type="line"/>
      <point x="165" y="605" type="line" smooth="yes"/>
      <point x="200" y="620" type="line"/>
      <point x="190" y="645" type="line"/>
      <point x="155" y="635" type="line"/>
    </contour>
    <contour>
      <point x="80" y="590" type="line"/>
      <point x="45" y="560" type="line"/>
      <point x="25" y="530" type="line"/>
      <point x="50" y="515" type="line"/>
      <point x="70" y="540" type="line" smooth="yes"/>
      <point x="90" y="580" type="line"/>
    </contour>
    <contour>
      <point x="120" y="590" type="line"/>
      <point x="110" y="580" type="line"/>
      <point x="130" y="540" type="line" smooth="yes"/>
      <point x="150" y="515" type="line"/>
      <point x="175" y="530" type="line"/>
      <point x="155" y="560" type="line"/>
    </contour>
  </outline>
</glyph>
<glyph name="period" format="1">
  <advance width="200"/>
  <unicode hex="002E"/>
  <outline>
    <contour>
      <point x="70" y="0" type="line"/>
      <point x="130" y="0" type="line"/>
      <point x="130" y="60" type="line"/>
      <point x="70" y="60" type="line"/>
    </contour>
  </outline>
</glyph>
<glyph name="slash" format="1">
  <advance width="200"/>
  <unicode hex="002F"/>
  <outline>
    <contour>
      <point x="0" y="0" type="line"/>
      <point x="50" y="0" type="line"/>
      <point x="200" y="700" type="line"/>
      <point x="150" y="700" type="line"/>
    </contour>
  </outline>
</glyph>
<glyph name="four" format="1">
  <advance width="600"/>
  <unicode hex="0034"/>
  <outline>
    <contour>
      <point x="50" y="225" type="line"/>
      <point x="500" y="225" type="line"/>
      <point x="500" y="275" type="line"/>
      <point x="90" y="275" type="line"/>
      <point x="50" y="265" type="line"/>
    </contour>
    <contour>
      <point x="70" y="230" type="line"/>
      <point x="215" y="340"/>
      <point x="325" y="465.0"/>
      <point x="325" y="650" type="curve" smooth="yes"/>
      <point x="325" y="700" type="line"/>
      <point x="275" y="700" type="line"/>
      <point x="275" y="650" type="line" smooth="yes"/>
      <point x="275" y="475.0"/>
      <point x="160" y="365"/>
      <point x="50" y="265" type="curve"/>
    </contour>
    <contour>
      <point x="525" y="0" type="line"/>
      <point x="525" y="525" type="line"/>
      <point x="500" y="525" type="line"/>
      <point x="475" y="475" type="line"/>
      <point x="475" y="0" type="line"/>
    </contour>
  </outline>
</glyph>
<glyph name="eight" format="1">
  <advance width="600"/>
  <unicode hex="0038"/>
  <outline>
    <contour>
      <point x="270" y="0" type="curve" smooth="yes"/>
      <point x="300" y="0" type="line"/>
      <point x="300" y="50" type="line"/>
      <point x="148.333333333" y="50.0"/>
      <point x="125" y="75.0"/>
      <point x="125" y="240" type="curve" smooth="yes"/>
      <point x="125" y="250" type="line"/>
      <point x="75" y="250" type="line"/>
      <point x="75" y="220" type="line"/>
      <point x="75" y="60"/>
      <point x="135" y="0"/>
    </contour>
    <contour>
      <point x="375" y="650" type="line" smooth="yes"/>
      <point x="455.0" y="650"/>
      <point x="475.0" y="614.0"/>
      <point x="475" y="560" type="curve"/>
      <point x="475.0" y="509.0"/>
      <point x="460.0" y="475.0"/>
      <point x="400" y="475" type="curve"/>
      <point x="200" y="475" type="line" smooth="yes"/>
      <point x="140.0" y="475"/>
      <point x="125.0" y="509.0"/>
      <point x="125" y="560" type="curve"/>
      <point x="125.0" y="614.0"/>
      <point x="145.0" y="650.0"/>
      <point x="225" y="650" type="curve"/>
    </contour>
    <contour>
      <point x="300" y="425" type="curve"/>
      <point x="451.666666667" y="425.0"/>
      <point x="475" y="400.0"/>
      <point x="475" y="260" type="curve" smooth="yes"/>
      <point x="475" y="250" type="line"/>
      <point x="525" y="250" type="line"/>
      <point x="525" y="280" type="line"/>
      <point x="525.0" y="352.258064516"/>
      <point x="510" y="415"/>
      <point x="450" y="440" type="curve"/>
      <point x="505" y="460"/>
      <point x="525" y="510"/>
      <point x="525" y="560" type="curve"/>
      <point x="525" y="640"/>
      <point x="470" y="700"/>
      <point x="375" y="700" type="curve" smooth="yes"/>
      <point x="225" y="700" type="line" smooth="yes"/>
      <point x="130" y="700"/>
      <point x="75" y="640"/>
      <point x="75" y="560" type="curve"/>
      <point x="75" y="510"/>
      <point x="95" y="460"/>
      <point x="150" y="440" type="curve"/>
      <point x="90" y="415"/>
      <point x="75.0" y="352.258064516"/>
      <point x="75" y="280" type="curve"/>
      <point x="75" y="250" type="line"/>
      <point x="125" y="250" type="line"/>
      <point x="125" y="260" type="line" smooth="yes"/>
      <point x="125" y="400.0"/>
      <point x="148.333333333" y="425.0"/>
    </contour>
    <contour>
      <point x="330" y="0" type="line" smooth="yes"/>
      <point x="465" y="0"/>
      <point x="525" y="60"/>
      <point x="525" y="220" type="curve"/>
      <point x="525" y="250" type="line"/>
      <point x="475" y="250" type="line"/>
      <point x="475" y="240" type="line" smooth="yes"/>
      <point x="475" y="75.0"/>
      <point x="451.666666667" y="50.0"/>
      <point x="300" y="50" type="curve"/>
      <point x="300" y="0" type="line"/>
    </contour>
  </outline>
</glyph>
<glyph name="colon" format="1">
  <advance width="200"/>
  <unicode hex="003A"/>
  <outline>
    <contour>
      <point x="70" y="0" type="line"/>
      <point x="130" y="0" type="line"/>
      <point x="130" y="60" type="line"/>
      <point x="70" y="60" type="line"/>
    </contour>
    <contour>
      <point x="70" y="440" type="line"/>
      <point x="130" y="440" type="line"/>
      <point x="130" y="500" type="line"/>
      <point x="70" y="500" type="line"/>
    </contour>
  </outline>
</glyph>
<glyph name="question" format="1">
  <advance width="200"/>
  <unicode hex="003F"/>
  <outline>
    <contour>
      <point x="70" y="0" type="line"/>
      <point x="130" y="0" type="line"/>
      <point x="130" y="60" type="line"/>
      <point x="70" y="60" type="line"/>
    </contour>
    <contour>
      <point x="80" y="300" type="curve" smooth="yes"/>
      <point x="85" y="200" type="line"/>
      <point x="115" y="200" type="line"/>
      <point x="120" y="300" type="line" smooth="yes"/>
      <point x="126.108591637" y="422.171832732"/>
      <point x="225" y="485"/>
      <point x="225" y="575" type="curve" smooth="yes"/>
      <point x="225" y="660"/>
      <point x="180.0" y="710.0"/>
      <point x="100" y="710" type="curve" smooth="yes"/>
      <point x="25" y="710"/>
      <point x="-25.0" y="660.0"/>
      <point x="-25" y="560" type="curve"/>
      <point x="-25" y="500" type="line"/>
      <point x="25" y="500" type="line"/>
      <point x="25" y="560" type="line"/>
      <point x="25.0" y="640.0"/>
      <point x="55.0" y="660.0"/>
      <point x="100" y="660" type="curve" smooth="yes"/>
      <point x="145.0" y="660.0"/>
      <point x="175.0" y="641.111111111"/>
      <point x="175" y="575" type="curve" smooth="yes"/>
      <point x="175.0" y="508.796296296"/>
      <point x="73.6373004695" y="427.253990609"/>
    </contour>
  </outline>
</glyph>
<glyph name="at" format="1">
  <advance width="600"/>
  <unicode hex="0040"/>
  <outline>
    <contour>
      <point x="325" y="340" type="curve"/>
      <point x="325" y="360" type="line"/>
      <point x="325.0" y="440.0"/>
      <point x="355.0" y="460.0"/>
      <point x="400" y="460" type="curve" smooth="yes"/>
      <point x="445.0" y="460.0"/>
      <point x="475.0" y="440.0"/>
      <point x="475" y="360" type="curve"/>
      <point x="475" y="470" type="line"/>
      <point x="464.30172327" y="491.396553461"/>
      <point x="435" y="510"/>
      <point x="385" y="510" type="curve" smooth="yes"/>
      <point x="315" y="510"/>
      <point x="275" y="460"/>
      <point x="275" y="360" type="curve" smooth="yes"/>
      <point x="275" y="340" type="line" smooth="yes"/>
      <point x="275" y="240"/>
      <point x="315" y="190"/>
      <point x="385" y="190" type="curve" smooth="yes"/>
      <point x="435" y="190"/>
      <point x="470" y="210"/>
      <point x="480" y="230" type="curve"/>
      <point x="475" y="340" type="line"/>
      <point x="475.0" y="260.0"/>
      <point x="445.0" y="240.0"/>
      <point x="400" y="240" type="curve" smooth="yes"/>
      <point x="355.0" y="240.0"/>
      <point x="325.0" y="260.0"/>
    </contour>
    <contour>
      <point x="300" y="50" type="line"/>
      <point x="195" y="50"/>
      <point x="125" y="115"/>
      <point x="125" y="250" type="curve" smooth="yes"/>
      <point x="125" y="450" type="line" smooth="yes"/>
      <point x="125" y="585"/>
      <point x="195" y="650"/>
      <point x="300" y="650" type="curve"/>
      <point x="300" y="650"/>
      <point x="350" y="650"/>
      <point x="350" y="650" type="curve"/>
      <point x="425" y="650"/>
      <point x="475" y="615"/>
      <point x="475" y="535" type="curve" smooth="yes"/>
      <point x="475" y="265" type="line"/>
      <point x="480" y="230" type="line"/>
      <point x="485" y="200" type="line"/>
      <point x="525" y="200" type="line"/>
      <point x="525" y="535" type="line" smooth="yes"/>
      <point x="525" y="640"/>
      <point x="455" y="700"/>
      <point x="350" y="700" type="curve"/>
      <point x="350" y="700"/>
      <point x="300" y="700"/>
      <point x="300" y="700" type="curve"/>
      <point x="165" y="700"/>
      <point x="75" y="610"/>
      <point x="75" y="450" type="curve" smooth="yes"/>
      <point x="75" y="250" type="line"/>
      <point x="75" y="90"/>
      <point x="165" y="0"/>
      <point x="300" y="0" type="curve"/>
      <point x="300" y="0"/>
      <point x="550" y="0"/>
      <point x="550" y="0" type="curve"/>
      <point x="550" y="0"/>
      <point x="550" y="50"/>
      <point x="550" y="50" type="curve"/>
    </contour>
  </outline>
</glyph>
<glyph name="A" format="1">
  <advance width="600"/>
  <unicode hex="0041"/>
  <outline>
    <contour>
      <point x="310" y="700" type="curve"/>
      <point x="290" y="700" type="line"/>
      <point x="285" y="660" type="line"/>
      <point x="450" y="545"/>
      <point x="475" y="385"/>
      <point x="475" y="200" type="curve" smooth="yes"/>
      <point x="475" y="0" type="line"/>
      <point x="525" y="0" type="line"/>
      <point x="525" y="200" type="line" smooth="yes"/>
      <point x="525" y="385"/>
      <point x="490" y="585"/>
    </contour>
    <contour>
      <point x="290" y="700" type="line"/>
      <point x="110" y="585"/>
      <point x="75" y="385"/>
      <point x="75" y="200" type="curve" smooth="yes"/>
      <point x="75" y="0" type="line"/>
      <point x="125" y="0" type="line"/>
      <point x="125" y="200" type="line" smooth="yes"/>
      <point x="125" y="385"/>
      <point x="150" y="545"/>
      <point x="315" y="660" type="curve"/>
    </contour>
    <contour>
      <point x="500" y="200" type="line"/>
      <point x="500" y="250" type="line"/>
      <point x="100" y="250" type="line"/>
      <point x="100" y="200" type="line"/>
    </contour>
    <contour>
      <point x="300" y="650" type="move" name="top"/>
    </contour>
  </outline>
</glyph>
<glyph name="B" format="1">
  <advance width="600"/>
  <unicode hex="0042"/>
  <outline>
    <contour>
      <point x="125" y="700" type="line"/>
      <point x="75" y="700" type="line"/>
      <point x="75" y="0" type="line"/>
      <point x="125" y="0" type="line"/>
    </contour>
    <contour>
      <point x="480" y="135" type="curve" smooth="yes"/>
      <point x="480" y="65"/>
      <point x="450" y="45"/>
      <point x="405" y="45" type="curve" smooth="yes"/>
      <point x="110" y="45" type="line"/>
      <point x="110" y="0" type="line"/>
      <point x="405" y="0" type="line" smooth="yes"/>
      <point x="470" y="0"/>
      <point x="530" y="25"/>
      <point x="530" y="135" type="curve"/>
      <point x="530" y="230"/>
      <point x="470" y="270"/>
      <point x="405" y="270" type="curve"/>
      <point x="395" y="275" type="line"/>
      <point x="100" y="275" type="line"/>
      <point x="130" y="225" type="line"/>
      <point x="405" y="225" type="line"/>
      <point x="450" y="225"/>
      <point x="480" y="210"/>
    </contour>
    <contour>
      <point x="330" y="230" type="line" smooth="yes"/>
      <point x="455" y="230"/>
      <point x="525" y="285"/>
      <point x="525" y="420" type="curve"/>
      <point x="525" y="450" type="line"/>
      <point x="475" y="450" type="line"/>
      <point x="475" y="440" type="line" smooth="yes"/>
      <point x="475" y="295"/>
      <point x="430" y="275"/>
      <point x="300" y="275" type="curve"/>
      <point x="110" y="275" type="line"/>
      <point x="110" y="225" type="line"/>
      <point x="300" y="230" type="line"/>
    </contour>
    <contour>
      <point x="330" y="700" type="curve" smooth="yes"/>
      <point x="110" y="700" type="line"/>
      <point x="110" y="650" type="line"/>
      <point x="300" y="650" type="line"/>
      <point x="430" y="650"/>
      <point x="475" y="625"/>
      <point x="475" y="460" type="curve" smooth="yes"/>
      <point x="475" y="450" type="line"/>
      <point x="525" y="450" type="line"/>
      <point x="525" y="480" type="line"/>
      <point x="525" y="640"/>
      <point x="455" y="700"/>
    </contour>
  </outline>
</glyph>
<glyph name="G" format="1">
  <advance width="600"/>
  <unicode hex="0047"/>
  <outline>
    <contour>
      <point x="300" y="-10" type="curve"/>
      <point x="410" y="-10"/>
      <point x="450" y="20"/>
      <point x="480" y="80" type="curve"/>
      <point x="475" y="125" type="line"/>
      <point x="475" y="240" type="line"/>
      <point x="475" y="105"/>
      <point x="450" y="40"/>
      <point x="300" y="40" type="curve"/>
      <point x="155" y="40"/>
      <point x="125" y="61.9736842105"/>
      <point x="125" y="240" type="curve" smooth="yes"/>
      <point x="125" y="350" type="line"/>
      <point x="75" y="350" type="line"/>
      <point x="75" y="220" type="line" smooth="yes"/>
      <point x="75" y="47.5"/>
      <point x="130.0" y="-10.0"/>
    </contour>
    <contour>
      <point x="270" y="700" type="line" smooth="yes"/>
      <point x="130" y="700"/>
      <point x="75" y="645"/>
      <point x="75" y="480" type="curve" smooth="yes"/>
      <point x="75" y="350" type="line"/>
      <point x="125" y="350" type="line"/>
      <point x="125" y="460" type="line" smooth="yes"/>
      <point x="125" y="625"/>
      <point x="150" y="650"/>
      <point x="300" y="650" type="curve"/>
      <point x="300" y="700" type="line"/>
    </contour>
    <contour>
      <point x="330" y="700" type="curve" smooth="yes"/>
      <point x="300" y="700" type="line"/>
      <point x="300" y="650" type="line"/>
      <point x="440" y="650"/>
      <point x="475" y="625"/>
      <point x="475" y="460" type="curve" smooth="yes"/>
      <point x="475" y="450" type="line"/>
      <point x="525" y="450" type="line"/>
      <point x="525" y="480" type="line"/>
      <point x="525" y="645"/>
      <point x="460" y="700"/>
    </contour>
    <contour>
      <point x="525" y="0" type="line"/>
      <point x="525" y="300" type="line"/>
      <point x="475" y="300" type="line"/>
      <point x="475" y="125" type="line"/>
      <point x="480" y="80" type="line"/>
      <point x="490" y="0" type="line"/>
    </contour>
    <contour>
      <point x="300" y="250" type="line"/>
      <point x="575" y="250" type="line"/>
      <point x="575" y="300" type="line"/>
      <point x="300" y="300" type="line"/>
    </contour>
  </outline>
</glyph>
<glyph name="J" format="1">
  <advance width="400"/>
  <unicode hex="004A"/>
  <outline>
    <contour>
      <point x="75" y="130" type="line"/>
      <point x="75" y="30"/>
      <point x="120" y="-10"/>
      <point x="200" y="-10" type="curve" smooth="yes"/>
      <point x="275" y="-10"/>
      <point x="325" y="35"/>
      <point x="325" y="140" type="curve"/>
      <point x="325" y="700" type="line"/>
      <point x="275" y="700" type="line"/>
      <point x="275" y="140" type="line" smooth="yes"/>
      <point x="275" y="60.0"/>
      <point x="245" y="40"/>
      <point x="200" y="40" type="curve" smooth="yes"/>
      <point x="145" y="40"/>
      <point x="125" y="60"/>
      <point x="125" y="130" type="curve"/>
      <point x="125" y="250" type="line"/>
      <point x="75" y="250" type="line"/>
    </contour>
  </outline>
</glyph>
<glyph name="O" format="1">
  <advance width="600"/>
  <unicode hex="004F"/>
  <outline>
    <contour>
      <point x="270" y="700" type="line" smooth="yes"/>
      <point x="130" y="700"/>
      <point x="75" y="645"/>
      <point x="75" y="480" type="curve" smooth="yes"/>
      <point x="75" y="350" type="line"/>
      <point x="125" y="350" type="line"/>
      <point x="125" y="460" type="line" smooth="yes"/>
      <point x="125" y="625"/>
      <point x="150" y="650"/>
      <point x="300" y="650" type="curve"/>
      <point x="300" y="700" type="line"/>
    </contour>
    <contour>
      <point x="270" y="0" type="curve" smooth="yes"/>
      <point x="300" y="0" type="line"/>
      <point x="300" y="50" type="line"/>
      <point x="150" y="50"/>
      <point x="125" y="75"/>
      <point x="125" y="240" type="curve" smooth="yes"/>
      <point x="125" y="350" type="line"/>
      <point x="75" y="350" type="line"/>
      <point x="75" y="220" type="line" smooth="yes"/>
      <point x="75" y="55"/>
      <point x="130" y="0"/>
    </contour>
    <contour>
      <point x="330" y="700" type="curve" smooth="yes"/>
      <point x="300" y="700" type="line"/>
      <point x="300" y="650" type="line"/>
      <point x="450" y="650"/>
      <point x="475" y="625"/>
      <point x="475" y="460" type="curve" smooth="yes"/>
      <point x="475" y="350" type="line"/>
      <point x="525" y="350" type="line"/>
      <point x="525" y="480" type="line" smooth="yes"/>
      <point x="525" y="645"/>
      <point x="470" y="700"/>
    </contour>
    <contour>
      <point x="330" y="0" type="line" smooth="yes"/>
      <point x="470" y="0"/>
      <point x="525" y="55"/>
      <point x="525" y="220" type="curve" smooth="yes"/>
      <point x="525" y="350" type="line"/>
      <point x="475" y="350" type="line"/>
      <point x="475" y="240" type="line" smooth="yes"/>
      <point x="475" y="75"/>
      <point x="450" y="50"/>
      <point x="300" y="50" type="curve"/>
      <point x="300" y="0" type="line"/>
    </contour>
    <contour>
      <point x="300.0" y="650.0" type="move" name="top"/>
    </contour>
  </outline>
</glyph>
<glyph name="P" format="1">
  <advance width="600"/>
  <unicode hex="0050"/>
  <outline>
    <contour>
      <point x="125" y="700" type="line"/>
      <point x="75" y="700" type="line"/>
      <point x="75" y="0" type="line"/>
      <point x="125" y="0" type="line"/>
    </contour>
    <contour>
      <point x="330" y="200" type="line" smooth="yes"/>
      <point x="454.090909091" y="200"/>
      <point x="525" y="260"/>
      <point x="525" y="420" type="curve"/>
      <point x="525" y="450" type="line"/>
      <point x="475" y="450" type="line"/>
      <point x="475" y="440" type="line" smooth="yes"/>
      <point x="475" y="277.142857143"/>
      <point x="430.0" y="250.0"/>
      <point x="300" y="250" type="curve"/>
      <point x="110" y="250" type="line"/>
      <point x="110" y="200" type="line"/>
    </contour>
    <contour>
      <point x="330" y="700" type="curve" smooth="yes"/>
      <point x="110" y="700" type="line"/>
      <point x="110" y="650" type="line"/>
      <point x="300" y="650" type="line"/>
      <point x="430.0" y="650.0"/>
      <point x="475" y="622.857142857"/>
      <point x="475" y="460" type="curve" smooth="yes"/>
      <point x="475" y="450" type="line"/>
      <point x="525" y="450" type="line"/>
      <point x="525" y="480" type="line"/>
      <point x="525" y="640"/>
      <point x="454.090909091" y="700"/>
    </contour>
  </outline>
</glyph>
<glyph name="W" format="1">
  <advance width="600"/>
  <unicode hex="0057"/>
  <outline>
    <contour>
      <point x="190" y="0" type="curve"/>
      <point x="205" y="60" type="line"/>
      <point x="145" y="175"/>
      <point x="125" y="271.034482759"/>
      <point x="125" y="400" type="curve" smooth="yes"/>
      <point x="125" y="700" type="line"/>
      <point x="75" y="700" type="line"/>
      <point x="75" y="400" type="line" smooth="yes"/>
      <point x="75" y="257.142857143"/>
      <point x="116.441873022" y="113.166349197"/>
    </contour>
    <contour>
      <point x="275" y="700" type="line"/>
      <point x="275" y="350" type="line" smooth="yes"/>
      <point x="275" y="241.25"/>
      <point x="260" y="175"/>
      <point x="195" y="60" type="curve"/>
      <point x="190" y="0" type="line"/>
      <point x="210" y="0" type="line"/>
      <point x="251.731545744" y="67.8137618345"/>
      <point x="284.215579551" y="126.600844719"/>
      <point x="300" y="195" type="curve"/>
      <point x="315.784420449" y="126.600844719"/>
      <point x="348.268454256" y="67.8137618345"/>
      <point x="390" y="0" type="curve"/>
      <point x="410" y="0" type="line"/>
      <point x="405" y="60" type="line"/>
      <point x="340" y="175"/>
      <point x="325" y="241.25"/>
      <point x="325" y="350" type="curve" smooth="yes"/>
      <point x="325" y="700" type="line"/>
    </contour>
    <contour>
      <point x="410" y="0" type="line"/>
      <point x="483.558126978" y="113.166349197"/>
      <point x="525" y="257.142857143"/>
      <point x="525" y="400" type="curve" smooth="yes"/>
      <point x="525" y="700" type="line"/>
      <point x="475" y="700" type="line"/>
      <point x="475" y="400" type="line" smooth="yes"/>
      <point x="475" y="271.034482759"/>
      <point x="455" y="175"/>
      <point x="395" y="60" type="curve"/>
    </contour>
  </outline>
</glyph>
<glyph name="Y" format="1">
  <advance width="600"/>
  <unicode hex="0059"/>
  <outline>
    <contour>
      <point x="290" y="250" type="curve"/>
      <point x="315" y="290" type="line"/>
      <point x="165" y="395"/>
      <point x="125" y="505"/>
      <point x="125" y="650" type="curve" smooth="yes"/>
      <point x="125" y="700" type="line"/>
      <point x="75" y="700" type="line"/>
      <point x="75" y="650" type="line" smooth="yes"/>
      <point x="75" y="500"/>
      <point x="120" y="355"/>
    </contour>
    <contour>
      <point x="310" y="250" type="line"/>
      <point x="480" y="355"/>
      <point x="525" y="500"/>
      <point x="525" y="650" type="curve" smooth="yes"/>
      <point x="525" y="700" type="line"/>
      <point x="475" y="700" type="line"/>
      <point x="475" y="650" type="line" smooth="yes"/>
      <point x="475" y="505"/>
      <point x="435" y="395"/>
      <point x="285" y="290" type="curve"/>
      <point x="290" y="250" type="line"/>
    </contour>
    <contour>
      <point x="275" y="0" type="line"/>
      <point x="325" y="0" type="line"/>
      <point x="325" y="280" type="line"/>
      <point x="275" y="280" type="line"/>
    </contour>
    <contour>
      <point x="300.0" y="650.0" type="move" name="top"/>
    </contour>
  </outline>
</glyph>
<glyph name="Z" format="1">
  <advance width="600"/>
  <unicode hex="005A"/>
  <outline>
    <contour>
      <point x="50" y="650" type="line"/>
      <point x="510" y="650" type="line"/>
      <point x="550" y="665" type="line"/>
      <point x="550" y="700" type="line"/>
      <point x="50" y="700" type="line"/>
    </contour>
    <contour>
      <point x="50" y="0" type="line"/>
      <point x="550" y="0" type="line"/>
      <point x="550" y="50" type="line"/>
      <point x="90" y="50" type="line"/>
      <point x="50" y="35" type="line"/>
    </contour>
    <contour>
      <point x="85" y="0" type="line"/>
      <point x="550" y="665" type="line"/>
      <point x="500" y="680" type="line"/>
      <point x="50" y="35" type="line"/>
    </contour>
    <contour>
      <point x="300" y="650" type="move" name="top"/>
    </contour>
  </outline>
</glyph>
<glyph name="asciicircum" format="1">
  <advance width="600"/>
  <unicode hex="005E"/>
  <outline>
    <contour>
      <point x="290" y="500" type="line"/>
      <point x="50" y="265" type="line"/>
      <point x="50" y="205" type="line"/>
      <point x="65" y="205" type="line"/>
      <point x="270" y="410" type="line"/>
      <point x="300" y="445" type="line"/>
      <point x="310" y="500" type="line"/>
    </contour>
    <contour>
      <point x="310" y="500" type="line"/>
      <point x="290" y="500" type="line"/>
      <point x="300" y="445" type="line"/>
      <point x="330" y="410" type="line"/>
      <point x="535" y="205" type="line"/>
      <point x="550" y="205" type="line"/>
      <point x="550" y="265" type="line"/>
    </contour>
  </outline>
</glyph>
<glyph name="e" format="1">
  <advance width="600"/>
  <unicode hex="0065"/>
  <outline>
    <contour>
      <point x="300" y="510" type="curve"/>
      <point x="120" y="510"/>
      <point x="70" y="435"/>
      <point x="70" y="290" type="curve"/>
      <point x="70" y="250" type="line"/>
      <point x="120" y="250" type="line"/>
      <point x="120" y="290" type="line" smooth="yes"/>
      <point x="120" y="405"/>
      <point x="145" y="460"/>
      <point x="300" y="460" type="curve"/>
      <point x="454.285714286" y="460.0"/>
      <point x="480.0" y="420.0"/>
      <point x="480" y="305" type="curve"/>
      <point x="480" y="225" type="line"/>
      <point x="530" y="225" type="line"/>
      <point x="530" y="315" type="line"/>
      <point x="530.0" y="440.0"/>
      <point x="478.888888889" y="510.0"/>
    </contour>
    <contour>
      <point x="300" y="40" type="curve"/>
      <point x="145" y="40"/>
      <point x="120" y="95"/>
      <point x="120" y="210" type="curve" smooth="yes"/>
      <point x="120" y="250" type="line"/>
      <point x="70" y="250" type="line"/>
      <point x="70" y="210" type="line"/>
      <point x="70" y="60"/>
      <point x="120" y="-10"/>
      <point x="300" y="-10" type="curve"/>
      <point x="473.777777778" y="-10.0"/>
      <point x="530.0" y="40.0"/>
      <point x="530" y="130" type="curve"/>
      <point x="530" y="175" type="line"/>
      <point x="480" y="175" type="line"/>
      <point x="480" y="140" type="line"/>
      <point x="480.0" y="65.0"/>
      <point x="454.285714286" y="40.0"/>
    </contour>
    <contour>
      <point x="100" y="225" type="line"/>
      <point x="530" y="225" type="line"/>
      <point x="530" y="275" type="line"/>
      <point x="100" y="275" type="line"/>
    </contour>
    <contour>
      <point x="300" y="500" type="move" name="top"/>
    </contour>
  </outline>
</glyph>
<glyph name="f" format="1">
  <advance width="400"/>
  <unicode hex="0066"/>
  <outline>
    <contour>
      <point x="25" y="225" type="line"/>
      <point x="375" y="225" type="line"/>
      <point x="375" y="275" type="line"/>
      <point x="25" y="275" type="line"/>
    </contour>
    <contour>
      <point x="400" y="700" type="line"/>
      <point x="245" y="700" type="line" smooth="yes"/>
      <point x="135" y="700"/>
      <point x="75" y="635"/>
      <point x="75" y="525" type="curve" smooth="yes"/>
      <point x="75" y="325" type="line"/>
      <point x="85" y="250" type="line"/>
      <point x="75" y="175" type="line"/>
      <point x="75" y="0" type="line"/>
      <point x="125" y="0" type="line"/>
      <point x="125" y="525" type="line" smooth="yes"/>
      <point x="125" y="625.0"/>
      <point x="175" y="650"/>
      <point x="250" y="650" type="curve" smooth="yes"/>
      <point x="400" y="650" type="line"/>
    </contour>
  </outline>
</glyph>
<glyph name="j" format="1">
  <advance width="200"/>
  <unicode hex="006A"/>
  <outline>
    <contour>
      <point x="70" y="640" type="line"/>
      <point x="130" y="640" type="line"/>
      <point x="130" y="700" type="line"/>
      <point x="70" y="700" type="line"/>
    </contour>
    <component base="dotlessj"/>
  </outline>
</glyph>
<glyph name="k" format="1">
  <advance width="600"/>
  <unicode hex="006B"/>
  <outline>
    <contour>
      <point x="75" y="0" type="line"/>
      <point x="125" y="0" type="line"/>
      <point x="125" y="700" type="line"/>
      <point x="75" y="700" type="line"/>
    </contour>
    <contour>
      <point x="115" y="225" type="line"/>
      <point x="250" y="225" type="line"/>
      <point x="250" y="275" type="line"/>
      <point x="115" y="275" type="line"/>
    </contour>
    <contour>
      <point x="315" y="235" type="line"/>
      <point x="445.0" y="235.0"/>
      <point x="503.36974541" y="283.697454097"/>
      <point x="515" y="400" type="curve" smooth="yes"/>
      <point x="525" y="500" type="line"/>
      <point x="475" y="500" type="line"/>
      <point x="465" y="400" type="line" smooth="yes"/>
      <point x="453.761694747" y="287.616947474"/>
      <point x="395.0" y="275.0"/>
      <point x="315" y="275" type="curve"/>
      <point x="225" y="275" type="line"/>
      <point x="225" y="225" type="line"/>
    </contour>
    <contour>
      <point x="315" y="265" type="curve"/>
      <point x="225" y="275" type="line"/>
      <point x="225" y="225" type="line"/>
      <point x="315" y="225" type="line"/>
      <point x="395.0" y="225.0"/>
      <point x="453.761694747" y="212.383052526"/>
      <point x="465" y="100" type="curve" smooth="yes"/>
      <point x="475" y="0" type="line"/>
      <point x="525" y="0" type="line"/>
      <point x="515" y="100" type="line" smooth="yes"/>
      <point x="503.36974541" y="216.302545903"/>
      <point x="445.0" y="265.0"/>
    </contour>
  </outline>
</glyph>
<glyph name="m" format="1">
  <advance width="600"/>
  <unicode hex="006D"/>
  <outline>
    <contour>
      <point x="75.0" y="0.0" type="line"/>
      <point x="125.0" y="0.0" type="line"/>
      <point x="125" y="420" type="line"/>
      <point x="120" y="460" type="line"/>
      <point x="115" y="500" type="line"/>
      <point x="75.0" y="500.0" type="line"/>
    </contour>
    <contour>
      <point x="120" y="460" type="curve"/>
      <point x="125" y="360" type="line"/>
      <point x="125" y="440"/>
      <point x="155" y="460"/>
      <point x="200" y="460" type="curve" smooth="yes"/>
      <point x="245" y="460"/>
      <point x="275" y="440"/>
      <point x="275" y="360" type="curve"/>
      <point x="275" y="0" type="line"/>
      <point x="325" y="0" type="line"/>
      <point x="325" y="390" type="line"/>
      <point x="305" y="450" type="line"/>
      <point x="290" y="485"/>
      <point x="255" y="510"/>
      <point x="210" y="510" type="curve" smooth="yes"/>
      <point x="160.0" y="510.0"/>
      <point x="132.041594579" y="484.083189158"/>
    </contour>
    <contour>
      <point x="300" y="450" type="curve"/>
      <point x="325" y="360" type="line"/>
      <point x="325.0" y="440.0"/>
      <point x="355.0" y="460.0"/>
      <point x="400" y="460" type="curve" smooth="yes"/>
      <point x="445.0" y="460.0"/>
      <point x="475.0" y="440.0"/>
      <point x="475" y="360" type="curve"/>
      <point x="475" y="0" type="line"/>
      <point x="525" y="0" type="line"/>
      <point x="525" y="360" type="line" smooth="yes"/>
      <point x="525" y="465.0"/>
      <point x="475.714285714" y="510.0"/>
      <point x="410" y="510" type="curve" smooth="yes"/>
      <point x="355.0" y="510.0"/>
      <point x="319.852025578" y="489.704051156"/>
    </contour>
  </outline>
</glyph>
<glyph name="o" format="1">
  <advance width="600"/>
  <unicode hex="006F"/>
  <outline>
    <contour>
      <point x="300" y="460" type="curve"/>
      <point x="456.774193548" y="460.0"/>
      <point x="480" y="405.0"/>
      <point x="480" y="290" type="curve" smooth="yes"/>
      <point x="480" y="250" type="line"/>
      <point x="530" y="250" type="line"/>
      <point x="530" y="290" type="line"/>
      <point x="530" y="435"/>
      <point x="480" y="510"/>
      <point x="300" y="510" type="curve"/>
      <point x="120" y="510"/>
      <point x="70" y="435"/>
      <point x="70" y="290" type="curve"/>
      <point x="70" y="250" type="line"/>
      <point x="120" y="250" type="line"/>
      <point x="120" y="290" type="line" smooth="yes"/>
      <point x="120" y="405.0"/>
      <point x="143.225806452" y="460.0"/>
    </contour>
    <contour>
      <point x="300" y="40" type="curve"/>
      <point x="143.225806452" y="40.0"/>
      <point x="120" y="95.0"/>
      <point x="120" y="210" type="curve" smooth="yes"/>
      <point x="120" y="250" type="line"/>
      <point x="70" y="250" type="line"/>
      <point x="70" y="210" type="line"/>
      <point x="70" y="60"/>
      <point x="120" y="-10"/>
      <point x="300" y="-10" type="curve"/>
      <point x="480" y="-10"/>
      <point x="530" y="60"/>
      <point x="530" y="210" type="curve"/>
      <point x="530" y="250" type="line"/>
      <point x="480" y="250" type="line"/>
      <point x="480" y="210" type="line" smooth="yes"/>
      <point x="480" y="95.0"/>
      <point x="456.774193548" y="40.0"/>
    </contour>
    <contour>
      <point x="300.0" y="500.0" type="move" name="top"/>
    </contour>
  </outline>
</glyph>
<glyph name="p" format="1">
  <advance width="600"/>
  <unicode hex="0070"/>
  <outline>
    <contour>
      <point x="75" y="500" type="line"/>
      <point x="75" y="-200" type="line"/>
      <point x="125" y="-200" type="line"/>
      <point x="125" y="375" type="line"/>
      <point x="120" y="420" type="line"/>
      <point x="110" y="500" type="line"/>
    </contour>
    <contour>
      <point x="125" y="70" type="line"/>
      <point x="155" y="20"/>
      <point x="195" y="-10"/>
      <point x="300" y="-10" type="curve" smooth="yes"/>
      <point x="470" y="-10"/>
      <point x="525" y="70"/>
      <point x="525" y="240" type="curve"/>
      <point x="525" y="250" type="line"/>
      <point x="475" y="250" type="line"/>
      <point x="475" y="240" type="line"/>
      <point x="475" y="80"/>
      <point x="430" y="40"/>
      <point x="300" y="40" type="curve" smooth="yes"/>
      <point x="150" y="40"/>
      <point x="125" y="105"/>
      <point x="125" y="240" type="curve"/>
    </contour>
    <contour>
      <point x="120" y="420" type="curve"/>
      <point x="125" y="375" type="line"/>
      <point x="125" y="260" type="line"/>
      <point x="125" y="395"/>
      <point x="150" y="460"/>
      <point x="300" y="460" type="curve" smooth="yes"/>
      <point x="430" y="460"/>
      <point x="475" y="420"/>
      <point x="475" y="260" type="curve"/>
      <point x="475" y="250" type="line"/>
      <point x="525" y="250" type="line"/>
      <point x="525" y="260" type="line"/>
      <point x="525" y="430"/>
      <point x="470" y="510"/>
      <point x="300" y="510" type="curve" smooth="yes"/>
      <point x="190" y="510"/>
      <point x="150" y="480"/>
    </contour>
  </outline>
</glyph>
<glyph name="r" format="1">
  <advance width="400"/>
  <unicode hex="0072"/>
  <outline>
    <contour>
      <point x="75" y="0" type="line"/>
      <point x="125" y="0" type="line"/>
      <point x="125" y="325" type="line"/>
      <point x="120" y="375" type="line"/>
      <point x="110" y="500" type="line"/>
      <point x="75" y="500" type="line"/>
    </contour>
    <contour>
      <point x="120" y="375" type="curve"/>
      <point x="125" y="325" type="line"/>
      <point x="125" y="205" type="line"/>
      <point x="125.0" y="368.333333333"/>
      <point x="165" y="450"/>
      <point x="340" y="450" type="curve" smooth="yes"/>
      <point x="425" y="450" type="line"/>
      <point x="425" y="500" type="line"/>
      <point x="355" y="500" type="line" smooth="yes"/>
      <point x="210.795454545" y="500"/>
      <point x="138.583793005" y="463.273016776"/>
    </contour>
    <contour>
      <point x="300.0" y="500.0" type="move" name="top"/>
    </contour>
  </outline>
</glyph>
<glyph name="t" format="1">
  <advance width="400"/>
  <unicode hex="0074"/>
  <outline>
    <contour>
      <point x="375" y="50" type="line"/>
      <point x="275" y="50" type="line"/>
      <point x="175" y="50"/>
      <point x="125" y="70"/>
      <point x="125" y="200" type="curve"/>
      <point x="125" y="450" type="line"/>
      <point x="375" y="450" type="line"/>
      <point x="375" y="500" type="line"/>
      <point x="125" y="500" type="line"/>
      <point x="125" y="600" type="line"/>
      <point x="90" y="600" type="line"/>
      <point x="75" y="490" type="line"/>
      <point x="75" y="200" type="line"/>
      <point x="75" y="55"/>
      <point x="130" y="0"/>
      <point x="275" y="0" type="curve"/>
      <point x="375" y="0" type="line"/>
    </contour>
  </outline>
</glyph>
<glyph name="u" format="1">
  <advance width="600"/>
  <unicode hex="0075"/>
  <outline>
    <contour>
      <point x="525" y="500" type="line"/>
      <point x="475" y="500" type="line"/>
      <point x="475" y="120" type="line"/>
      <point x="480" y="80" type="line"/>
      <point x="490" y="0" type="line"/>
      <point x="525" y="0" type="line"/>
    </contour>
    <contour>
      <point x="480" y="80" type="curve"/>
      <point x="475" y="120" type="line"/>
      <point x="475" y="240" type="line"/>
      <point x="475" y="105"/>
      <point x="450" y="40"/>
      <point x="300" y="40" type="curve" smooth="yes"/>
      <point x="170" y="40"/>
      <point x="125" y="80"/>
      <point x="125" y="240" type="curve"/>
      <point x="125" y="500" type="line"/>
      <point x="75" y="500" type="line"/>
      <point x="75" y="210" type="line"/>
      <point x="75" y="60"/>
      <point x="135" y="-10"/>
      <point x="285" y="-10" type="curve"/>
      <point x="405" y="-10"/>
      <point x="470" y="30"/>
    </contour>
    <contour>
      <point x="300.0" y="500.0" type="move" name="top"/>
    </contour>
  </outline>
</glyph>
<glyph name="y" format="1">
  <advance width="600"/>
  <unicode hex="0079"/>
  <outline>
    <contour>
      <point x="290" y="0" type="curve"/>
      <point x="315" y="40" type="line"/>
      <point x="165" y="145"/>
      <point x="125" y="255"/>
      <point x="125" y="400" type="curve" smooth="yes"/>
      <point x="125" y="500" type="line"/>
      <point x="75" y="500" type="line"/>
      <point x="75" y="400" type="line" smooth="yes"/>
      <point x="75" y="250"/>
      <point x="120" y="105"/>
    </contour>
    <contour>
      <point x="310" y="0" type="line"/>
      <point x="480" y="105"/>
      <point x="525" y="250"/>
      <point x="525" y="400" type="curve" smooth="yes"/>
      <point x="525" y="500" type="line"/>
      <point x="475" y="500" type="line"/>
      <point x="475" y="400" type="line" smooth="yes"/>
      <point x="475" y="255"/>
      <point x="435" y="145"/>
      <point x="285" y="40" type="curve"/>
      <point x="290" y="0" type="line"/>
    </contour>
    <contour>
      <point x="275" y="20" type="line"/>
      <point x="275" y="-200" type="line"/>
      <point x="325" y="-200" type="line"/>
      <point x="325" y="20" type="line"/>
    </contour>
    <contour>
      <point x="300.0" y="500.0" type="move" name="top"/>
    </contour>
  </outline>
</glyph>
<glyph name="braceleft" format="1">
  <advance width="200"/>
  <unicode hex="007B"/>
  <outline>
    <contour>
      <point x="75" y="560" type="curve"/>
      <point x="75" y="350" type="line"/>
      <point x="75.0" y="295.0"/>
      <point x="59.2501133529" y="284.812528338"/>
      <point x="0" y="270" type="curve"/>
      <point x="0" y="230" type="line"/>
      <point x="60.3463029386" y="214.913424265"/>
      <point x="75" y="205.0"/>
      <point x="75" y="150" type="curve" smooth="yes"/>
      <point x="75" y="-60" type="line"/>
      <point x="75" y="-160"/>
      <point x="130" y="-200"/>
      <point x="200" y="-200" type="curve"/>
      <point x="200" y="-150" type="line"/>
      <point x="155.0" y="-150.0"/>
      <point x="125" y="-132.0"/>
      <point x="125" y="-60" type="curve" smooth="yes"/>
      <point x="125" y="150" type="line"/>
      <point x="125" y="210"/>
      <point x="105" y="240"/>
      <point x="75" y="250" type="curve"/>
      <point x="105" y="260"/>
      <point x="125" y="290"/>
      <point x="125" y="350" type="curve"/>
      <point x="125" y="560" type="line" smooth="yes"/>
      <point x="125" y="632.0"/>
      <point x="155.0" y="650.0"/>
      <point x="200" y="650" type="curve"/>
      <point x="200" y="700" type="line"/>
      <point x="130" y="700"/>
      <point x="75" y="660"/>
    </contour>
  </outline>
</glyph>
<glyph name="bar" format="1">
  <advance width="200"/>
  <unicode hex="007C"/>
  <outline>
    <contour>
      <point x="75" y="0" type="line"/>
      <point x="125" y="0" type="line"/>
      <point x="125" y="700" type="line"/>
      <point x="75" y="700" type="line"/>
    </contour>
  </outline>
</glyph>
<glyph name="sterling" format="1">
  <advance width="600"/>
  <unicode hex="00A3"/>
  <outline>
    <contour>
      <point x="50" y="50" type="line"/>
      <point x="50" y="0" type="line"/>
      <point x="545" y="0" type="line"/>
      <point x="545" y="50" type="line"/>
    </contour>
    <contour>
      <point x="50" y="350" type="line"/>
      <point x="50" y="300" type="line"/>
      <point x="404" y="300" type="line"/>
      <point x="404" y="350" type="line"/>
    </contour>
    <contour>
      <point x="217" y="149" type="curve" smooth="yes"/>
      <point x="217" y="291"/>
      <point x="120" y="365"/>
      <point x="120" y="510" type="curve" smooth="yes"/>
      <point x="120" y="600"/>
      <point x="156" y="650"/>
      <point x="300" y="650" type="curve"/>
      <point x="428" y="650"/>
      <point x="475" y="625"/>
      <point x="475" y="460" type="curve" smooth="yes"/>
      <point x="475" y="450" type="line"/>
      <point x="520" y="450" type="line"/>
      <point x="520" y="480" type="line"/>
      <point x="520" y="640"/>
      <point x="450" y="700"/>
      <point x="330" y="700" type="curve" smooth="yes"/>
      <point x="300" y="700" type="line"/>
      <point x="135" y="700"/>
      <point x="75" y="630"/>
      <point x="75" y="510" type="curve" smooth="yes"/>
      <point x="75" y="346"/>
      <point x="172" y="272"/>
      <point x="172" y="149" type="curve" smooth="yes"/>
      <point x="172" y="79"/>
      <point x="142.0" y="50.0"/>
      <point x="65" y="50" type="curve"/>
      <point x="70" y="13" type="line"/>
      <point x="193.1226108977179" y="22.00897152910131"/>
      <point x="217" y="62"/>
    </contour>
    <contour>
      <point x="300.0" y="650.0" type="move" name="top"/>
    </contour>
  </outline>
</glyph>
<glyph name="yen" format="1">
  <advance width="600"/>
  <unicode hex="00A5"/>
  <outline>
    <contour>
      <point x="290" y="250" type="curve"/>
      <point x="315" y="290" type="line"/>
      <point x="165" y="395"/>
      <point x="125" y="505"/>
      <point x="125" y="650" type="curve" smooth="yes"/>
      <point x="125" y="700" type="line"/>
      <point x="75" y="700" type="line"/>
      <point x="75" y="650" type="line" smooth="yes"/>
      <point x="75" y="500"/>
      <point x="120" y="355"/>
    </contour>
    <contour>
      <point x="310" y="250" type="line"/>
      <point x="480" y="355"/>
      <point x="525" y="500"/>
      <point x="525" y="650" type="curve" smooth="yes"/>
      <point x="525" y="700" type="line"/>
      <point x="475" y="700" type="line"/>
      <point x="475" y="650" type="line" smooth="yes"/>
      <point x="475" y="505"/>
      <point x="435" y="395"/>
      <point x="285" y="290" type="curve"/>
      <point x="290" y="250" type="line"/>
    </contour>
    <contour>
      <point x="275" y="0" type="line"/>
      <point x="325" y="0" type="line"/>
      <point x="325" y="280" type="line"/>
      <point x="275" y="280" type="line"/>
    </contour>
    <contour>
      <point x="50" y="225" type="line"/>
      <point x="550" y="225" type="line"/>
      <point x="550" y="275" type="line"/>
      <point x="430" y="275" type="line"/>
      <point x="325" y="265" type="line"/>
      <point x="275" y="265" type="line"/>
      <point x="170" y="275" type="line"/>
      <point x="50" y="275" type="line"/>
    </contour>
    <contour>
      <point x="50" y="450" type="line"/>
      <point x="120" y="450" type="line"/>
      <point x="120" y="500" type="line"/>
      <point x="50" y="500" type="line"/>
    </contour>
    <contour>
      <point x="480" y="450" type="line"/>
      <point x="550" y="450" type="line"/>
      <point x="550" y="500" type="line"/>
      <point x="480" y="500" type="line"/>
    </contour>
    <contour>
      <point x="300.0" y="650.0" type="move" name="top"/>
    </contour>
  </outline>
</glyph>
<glyph name="section" format="1">
  <advance width="600"/>
  <unicode hex="00A7"/>
  <outline>
    <contour>
      <point x="485" y="350" type="curve"/>
      <point x="485" y="265"/>
      <point x="450" y="245"/>
      <point x="300" y="245" type="curve" smooth="yes"/>
      <point x="180" y="245"/>
      <point x="115" y="280"/>
      <point x="115" y="350" type="curve"/>
      <point x="115" y="435"/>
      <point x="150" y="455"/>
      <point x="300" y="455" type="curve" smooth="yes"/>
      <point x="420" y="455"/>
      <point x="485" y="420"/>
    </contour>
    <contour>
      <point x="65" y="350" type="curve"/>
      <point x="65" y="255"/>
      <point x="120" y="210"/>
      <point x="300" y="200" type="curve" smooth="yes"/>
      <point x="420" y="195"/>
      <point x="485" y="175"/>
      <point x="485" y="120" type="curve" smooth="yes"/>
      <point x="485" y="60"/>
      <point x="450" y="40"/>
      <point x="300" y="40" type="curve" smooth="yes"/>
      <point x="150" y="40"/>
      <point x="125" y="60"/>
      <point x="125" y="140" type="curve" smooth="yes"/>
      <point x="125" y="160" type="line"/>
      <point x="75" y="160" type="line"/>
      <point x="75" y="130" type="line" smooth="yes"/>
      <point x="75" y="40"/>
      <point x="120" y="-10"/>
      <point x="300" y="-10" type="curve" smooth="yes"/>
      <point x="480" y="-10"/>
      <point x="535" y="35"/>
      <point x="535" y="125" type="curve"/>
      <point x="535" y="175"/>
      <point x="500" y="215"/>
      <point x="445" y="225" type="curve"/>
      <point x="430" y="210" type="line"/>
      <point x="505" y="230"/>
      <point x="535" y="275"/>
      <point x="535" y="350" type="curve"/>
      <point x="535" y="445"/>
      <point x="480" y="490"/>
      <point x="300" y="500" type="curve" smooth="yes"/>
      <point x="180" y="505"/>
      <point x="115" y="525"/>
      <point x="115" y="580" type="curve" smooth="yes"/>
      <point x="115" y="640"/>
      <point x="150" y="660"/>
      <point x="300" y="660" type="curve" smooth="yes"/>
      <point x="450" y="660"/>
      <point x="475" y="640"/>
      <point x="475" y="560" type="curve" smooth="yes"/>
      <point x="475" y="540" type="line"/>
      <point x="525" y="540" type="line"/>
      <point x="525" y="570" type="line" smooth="yes"/>
      <point x="525" y="660"/>
      <point x="480" y="710"/>
      <point x="300" y="710" type="curve" smooth="yes"/>
      <point x="120" y="710"/>
      <point x="65" y="665"/>
      <point x="65" y="575" type="curve"/>
      <point x="65" y="525"/>
      <point x="100" y="485"/>
      <point x="155" y="475" type="curve"/>
      <point x="170" y="490" type="line"/>
      <point x="95" y="470"/>
      <point x="65" y="425"/>
    </contour>
  </outline>
</glyph>
<glyph name="plusminus" format="1">
  <advance width="600"/>
  <unicode hex="00B1"/>
  <outline>
    <contour>
      <point x="550" y="450" type="line"/>
      <point x="550" y="500" type="line"/>
      <point x="380" y="500" type="line"/>
      <point x="320" y="495" type="line"/>
      <point x="325" y="555" type="line"/>
      <point x="325" y="700" type="line"/>
      <point x="275" y="700" type="line"/>
      <point x="275" y="555" type="line" smooth="yes"/>
      <point x="280" y="495" type="line"/>
      <point x="220" y="500" type="line"/>
      <point x="50" y="500" type="line"/>
      <point x="50" y="450" type="line"/>
      <point x="220" y="450" type="line" smooth="yes"/>
      <point x="280" y="455" type="line"/>
      <point x="275" y="395" type="line"/>
      <point x="275" y="365" type="line"/>
      <point x="325" y="365" type="line"/>
      <point x="325" y="395" type="line"/>
      <point x="320" y="455" type="line"/>
      <point x="380" y="450" type="line"/>
    </contour>
    <contour>
      <point x="550" y="250" type="line"/>
      <point x="380" y="250" type="line"/>
      <point x="320" y="245" type="line"/>
      <point x="325" y="305" type="line"/>
      <point x="325" y="365" type="line"/>
      <point x="275" y="365" type="line"/>
      <point x="275" y="305" type="line"/>
      <point x="280" y="245" type="line"/>
      <point x="220" y="250" type="line" smooth="yes"/>
      <point x="50" y="250" type="line"/>
      <point x="50" y="200" type="line"/>
      <point x="550" y="200" type="line"/>
    </contour>
  </outline>
</glyph>
<glyph name="paragraph" format="1">
  <advance width="600"/>
  <unicode hex="00B6"/>
  <outline>
    <contour>
      <point x="275" y="-100" type="line"/>
      <point x="325" y="-100" type="line"/>
      <point x="325" y="700" type="line"/>
      <point x="275" y="700" type="line"/>
    </contour>
    <contour>
      <point x="300" y="650" type="line"/>
      <point x="590" y="650" type="line"/>
      <point x="590" y="700" type="line"/>
      <point x="300" y="700" type="line"/>
    </contour>
    <contour>
      <point x="475" y="-100" type="line"/>
      <point x="525" y="-100" type="line"/>
      <point x="525" y="700" type="line"/>
      <point x="475" y="700" type="line"/>
    </contour>
    <contour>
      <point x="40" y="550" type="curve"/>
      <point x="40" y="460"/>
      <point x="110" y="400"/>
      <point x="190" y="400" type="curve"/>
      <point x="305" y="400" type="line"/>
      <point x="275" y="650" type="line"/>
      <point x="445" y="650" type="line"/>
      <point x="445" y="700" type="line"/>
      <point x="190" y="700" type="line"/>
      <point x="110" y="700"/>
      <point x="40" y="640"/>
    </contour>
  </outline>
</glyph>
<glyph name="onehalf" format="1">
  <advance width="600"/>
  <unicode hex="00BD"/>
  <outline>
    <contour>
      <point x="0" y="0" type="line"/>
      <point x="55" y="0" type="line"/>
      <point x="450" y="700" type="line"/>
      <point x="395" y="700" type="line"/>
    </contour>
    <component base="one.sup"/>
    <component base="two.sup" xOffset="200" yOffset="-400"/>
  </outline>
</glyph>
<glyph name="threequarters" format="1">
  <advance width="700"/>
  <unicode hex="00BE"/>
  <outline>
    <contour>
      <point x="150" y="0" type="line"/>
      <point x="205" y="0" type="line"/>
      <point x="600" y="700" type="line"/>
      <point x="545" y="700" type="line"/>
    </contour>
    <component base="three.sup"/>
    <component base="four.sup" xOffset="300" yOffset="-400"/>
  </outline>
</glyph>
<glyph name="AE" format="1">
  <advance width="600"/>
  <unicode hex="00C6"/>
  <outline>
    <contour>
      <point x="300" y="0" type="line"/>
      <point x="550" y="0" type="line"/>
      <point x="550" y="50" type="line"/>
      <point x="300" y="50" type="line"/>
    </contour>
    <contour>
      <point x="200" y="650" type="line"/>
      <point x="525" y="650" type="line"/>
      <point x="525" y="700" type="line"/>
      <point x="200" y="700" type="line"/>
    </contour>
    <contour>
      <point x="300" y="225" type="line"/>
      <point x="525" y="225" type="line"/>
      <point x="525" y="275" type="line"/>
      <point x="300" y="275" type="line"/>
    </contour>
    <contour>
      <point x="225" y="700" type="curve"/>
      <point x="185" y="670" type="line"/>
      <point x="245" y="570"/>
      <point x="275" y="470"/>
      <point x="275" y="350" type="curve" smooth="yes"/>
      <point x="275" y="0" type="line"/>
      <point x="325" y="0" type="line"/>
      <point x="325" y="350" type="line" smooth="yes"/>
      <point x="325" y="460"/>
      <point x="285" y="595"/>
    </contour>
    <contour>
      <point x="175" y="700" type="line"/>
      <point x="115" y="600"/>
      <point x="75" y="460"/>
      <point x="75" y="350" type="curve" smooth="yes"/>
      <point x="75" y="0" type="line"/>
      <point x="125" y="0" type="line"/>
      <point x="125" y="350" type="line" smooth="yes"/>
      <point x="125" y="470"/>
      <point x="155" y="565"/>
      <point x="215" y="670" type="curve"/>
      <point x="225" y="700" type="line"/>
    </contour>
    <contour>
      <point x="300" y="225" type="line"/>
      <point x="300" y="275" type="line"/>
      <point x="100" y="275" type="line"/>
      <point x="100" y="225" type="line"/>
    </contour>
  </outline>
</glyph>
<glyph name="Oslash" format="1">
  <advance width="600"/>
  <unicode hex="00D8"/>
  <outline>
    <contour>
      <point x="50" y="0" type="line"/>
      <point x="90" y="-25" type="line"/>
      <point x="550" y="700" type="line"/>
      <point x="510" y="725" type="line"/>
    </contour>
    <component base="O"/>
  </outline>
</glyph>
<glyph name="germandbls" format="1">
  <advance width="800"/>
  <unicode hex="00DF"/>
  <outline>
    <contour>
      <point x="300" y="650" type="line" smooth="yes"/>
      <point x="450.0" y="650"/>
      <point x="485.0" y="632.222222222"/>
      <point x="485" y="570" type="curve"/>
      <point x="485.0" y="525.294117647"/>
      <point x="460" y="495"/>
      <point x="385" y="475" type="curve" smooth="yes"/>
      <point x="315" y="455"/>
      <point x="265" y="435"/>
      <point x="265" y="350" type="curve" smooth="yes"/>
      <point x="265" y="280"/>
      <point x="350" y="240"/>
      <point x="500" y="225" type="curve" smooth="yes"/>
      <point x="615" y="215"/>
      <point x="685.0" y="189.705882353"/>
      <point x="685" y="125" type="curve" smooth="yes"/>
      <point x="685.0" y="57.0"/>
      <point x="650.0" y="40.0"/>
      <point x="500" y="40" type="curve" smooth="yes"/>
      <point x="350.0" y="40.0"/>
      <point x="325.0" y="60.0"/>
      <point x="325" y="140" type="curve"/>
      <point x="325" y="160" type="line"/>
      <point x="275" y="160" type="line"/>
      <point x="275" y="130" type="line"/>
      <point x="275" y="35"/>
      <point x="325" y="-10"/>
      <point x="500" y="-10" type="curve" smooth="yes"/>
      <point x="685.0" y="-10.0"/>
      <point x="735" y="30"/>
      <point x="735" y="135" type="curve"/>
      <point x="735" y="210"/>
      <point x="665" y="255"/>
      <point x="500" y="275" type="curve" smooth="yes"/>
      <point x="385" y="290"/>
      <point x="315.0" y="303.333333333"/>
      <point x="315" y="360" type="curve" smooth="yes"/>
      <point x="315.0" y="400.909090909"/>
      <point x="330" y="410"/>
      <point x="410" y="435" type="curve" smooth="yes"/>
      <point x="490" y="460"/>
      <point x="535.0" y="494.583333333"/>
      <point x="535" y="565" type="curve"/>
      <point x="535.0" y="658.103448276"/>
      <point x="480" y="700"/>
      <point x="300" y="700" type="curve" smooth="yes"/>
      <point x="200" y="700" type="line" smooth="yes"/>
      <point x="120" y="700"/>
      <point x="75.0" y="640.0"/>
      <point x="75" y="550" type="curve"/>
      <point x="75" y="0" type="line"/>
      <point x="125" y="0" type="line"/>
      <point x="125" y="550" type="line" smooth="yes"/>
      <point x="125" y="630.0"/>
      <point x="155.0" y="650"/>
      <point x="200" y="650" type="curve" smooth="yes"/>
    </contour>
  </outline>
</glyph>
<glyph name="ae" format="1">
  <advance width="1000"/>
  <unicode hex="00E6"/>
  <outline>
    <contour>
      <point x="525" y="290" type="line" smooth="yes"/>
      <point x="525" y="405"/>
      <point x="550" y="460"/>
      <point x="700" y="460" type="curve"/>
      <point x="854.285714286" y="460.0"/>
      <point x="880.0" y="420.0"/>
      <point x="880" y="305" type="curve"/>
      <point x="880" y="275" type="line"/>
      <point x="525" y="275" type="line"/>
    </contour>
    <contour>
      <point x="700" y="-10" type="curve"/>
      <point x="873.777777778" y="-10.0"/>
      <point x="930.0" y="40.0"/>
      <point x="930" y="130" type="curve"/>
      <point x="930" y="175" type="line"/>
      <point x="880" y="175" type="line"/>
      <point x="880" y="140" type="line"/>
      <point x="880.0" y="65.0"/>
      <point x="854.285714286" y="40.0"/>
      <point x="700" y="40" type="curve"/>
      <point x="550" y="40"/>
      <point x="525" y="95"/>
      <point x="525" y="210" type="curve" smooth="yes"/>
      <point x="525" y="225" type="line"/>
      <point x="930" y="225" type="line"/>
      <point x="930" y="315" type="line"/>
      <point x="930.0" y="440.0"/>
      <point x="878.888888889" y="510.0"/>
      <point x="700" y="510" type="curve"/>
      <point x="590.0" y="510.0"/>
      <point x="525" y="480"/>
      <point x="500" y="420" type="curve"/>
      <point x="475" y="480"/>
      <point x="405.0" y="510.0"/>
      <point x="300" y="510" type="curve" smooth="yes"/>
      <point x="130" y="510"/>
      <point x="75" y="445"/>
      <point x="75" y="340" type="curve"/>
      <point x="75" y="320" type="line"/>
      <point x="125" y="320" type="line"/>
      <point x="125" y="340" type="line"/>
      <point x="125" y="425"/>
      <point x="160" y="460"/>
      <point x="300" y="460" type="curve" smooth="yes"/>
      <point x="435" y="460"/>
      <point x="475" y="425"/>
      <point x="475" y="330" type="curve" smooth="yes"/>
      <point x="475" y="220" type="line"/>
      <point x="445" y="260"/>
      <point x="385" y="280"/>
      <point x="270" y="280" type="curve" smooth="yes"/>
      <point x="130" y="280"/>
      <point x="65" y="235"/>
      <point x="65" y="135" type="curve"/>
      <point x="65" y="35"/>
      <point x="130" y="-10"/>
      <point x="270" y="-10" type="curve" smooth="yes"/>
      <point x="413.043478261" y="-10.0"/>
      <point x="479.918861605" y="14.8052678513"/>
      <point x="505" y="75" type="curve"/>
      <point x="534.8515075" y="15.2969850008"/>
      <point x="592.75" y="-10.0"/>
    </contour>
    <contour>
      <point x="270" y="40" type="curve"/>
      <point x="145" y="40"/>
      <point x="115" y="65"/>
      <point x="115" y="135" type="curve"/>
      <point x="115" y="205"/>
      <point x="145" y="230"/>
      <point x="270" y="230" type="curve"/>
      <point x="430" y="230"/>
      <point x="475" y="200"/>
      <point x="475" y="135" type="curve"/>
      <point x="475" y="70"/>
      <point x="430" y="40"/>
    </contour>
    <contour>
      <point x="300.0" y="500.0" type="move" name="top"/>
    </contour>
    <contour>
      <point x="700.0" y="500.0" type="move" name="top"/>
    </contour>
    <contour>
      <point x="300.0" y="500.0" type="move" name="top"/>
    </contour>
    <contour>
      <point x="700.0" y="500.0" type="move" name="top"/>
    </contour>
  </outline>
</glyph>
<glyph name="divide" format="1">
  <advance width="600"/>
  <unicode hex="00F7"/>
  <outline>
    <contour>
      <point x="270" y="440" type="line"/>
      <point x="330" y="440" type="line"/>
      <point x="330" y="500" type="line"/>
      <point x="270" y="500" type="line"/>
    </contour>
    <contour>
      <point x="550" y="225" type="line"/>
      <point x="550" y="275" type="line"/>
      <point x="50" y="275" type="line"/>
      <point x="50" y="225" type="line"/>
    </contour>
    <contour>
      <point x="270" y="0" type="line"/>
      <point x="330" y="0" type="line"/>
      <point x="330" y="60" type="line"/>
      <point x="270" y="60" type="line"/>
    </contour>
  </outline>
</glyph>
<glyph name="oslash" format="1">
  <advance width="600"/>
  <unicode hex="00F8"/>
  <outline>
    <contour>
      <point x="50" y="0" type="line"/>
      <point x="85" y="-35" type="line"/>
      <point x="550" y="500" type="line"/>
      <point x="515" y="535" type="line"/>
    </contour>
    <component base="o"/>
  </outline>
</glyph>
<glyph name="thorn" format="1">
  <advance width="600"/>
  <unicode hex="00FE"/>
  <outline>
    <contour>
      <point x="75" y="700" type="line"/>
      <point x="75" y="-200" type="line"/>
      <point x="125" y="-200" type="line"/>
      <point x="125" y="375" type="line"/>
      <point x="120" y="420" type="line"/>
      <point x="120" y="700" type="line"/>
    </contour>
    <contour>
      <point x="125" y="70" type="line"/>
      <point x="155" y="20"/>
      <point x="195" y="-10"/>
      <point x="300" y="-10" type="curve" smooth="yes"/>
      <point x="470" y="-10"/>
      <point x="525" y="70"/>
      <point x="525" y="240" type="curve"/>
      <point x="525" y="250" type="line"/>
      <point x="475" y="250" type="line"/>
      <point x="475" y="240" type="line"/>
      <point x="475" y="80"/>
      <point x="430" y="40"/>
      <point x="300" y="40" type="curve" smooth="yes"/>
      <point x="150" y="40"/>
      <point x="125" y="105"/>
      <point x="125" y="240" type="curve"/>
    </contour>
    <contour>
      <point x="120" y="420" type="curve"/>
      <point x="125" y="375" type="line"/>
      <point x="125" y="260" type="line"/>
      <point x="125" y="395"/>
      <point x="150" y="460"/>
      <point x="300" y="460" type="curve" smooth="yes"/>
      <point x="430" y="460"/>
      <point x="475" y="420"/>
      <point x="475" y="260" type="curve"/>
      <point x="475" y="250" type="line"/>
      <point x="525" y="250" type="line"/>
      <point x="525" y="260" type="line"/>
      <point x="525" y="430"/>
      <point x="470" y="510"/>
      <point x="300" y="510" type="curve" smooth="yes"/>
      <point x="190" y="510"/>
      <point x="150" y="480"/>
    </contour>
  </outline>
</glyph>
<glyph name="Lslash" format="1">
  <advance width="400"/>
  <unicode hex="0141"/>
  <outline>
    <contour>
      <point x="10" y="300" type="line"/>
      <point x="305" y="395" type="line"/>
      <point x="305" y="445" type="line"/>
      <point x="10" y="350" type="line"/>
    </contour>
    <component base="L"/>
  </outline>
</glyph>
<glyph name="oe" format="1">
  <advance width="1000"/>
  <unicode hex="0153"/>
  <outline>
    <contour>
      <point x="525" y="290" type="line" smooth="yes"/>
      <point x="525" y="405"/>
      <point x="550" y="460"/>
      <point x="705" y="460" type="curve"/>
      <point x="855" y="460"/>
      <point x="880" y="420"/>
      <point x="880" y="305" type="curve"/>
      <point x="880" y="275" type="line"/>
      <point x="525" y="275" type="line"/>
    </contour>
    <contour>
      <point x="70" y="290" type="curve"/>
      <point x="70" y="210" type="line"/>
      <point x="70" y="60"/>
      <point x="120" y="-10"/>
      <point x="300" y="-10" type="curve"/>
      <point x="410.0" y="-10.0"/>
      <point x="470" y="10"/>
      <point x="500" y="90" type="curve"/>
      <point x="530" y="10"/>
      <point x="590.0" y="-10.0"/>
      <point x="705" y="-10" type="curve"/>
      <point x="875" y="-10"/>
      <point x="930" y="40"/>
      <point x="930" y="130" type="curve"/>
      <point x="930" y="175" type="line"/>
      <point x="880" y="175" type="line"/>
      <point x="880" y="140" type="line"/>
      <point x="880" y="65"/>
      <point x="855" y="40"/>
      <point x="705" y="40" type="curve"/>
      <point x="550" y="40"/>
      <point x="525" y="95"/>
      <point x="525" y="210" type="curve" smooth="yes"/>
      <point x="525" y="225" type="line"/>
      <point x="930" y="225" type="line"/>
      <point x="930" y="315" type="line"/>
      <point x="930" y="440"/>
      <point x="880" y="510"/>
      <point x="705" y="510" type="curve"/>
      <point x="590.0" y="510.0"/>
      <point x="530" y="485"/>
      <point x="500" y="410" type="curve"/>
      <point x="470" y="485"/>
      <point x="410.0" y="510.0"/>
      <point x="300" y="510" type="curve"/>
      <point x="120" y="510"/>
      <point x="70" y="435"/>
    </contour>
    <contour>
      <point x="120" y="210" type="curve" smooth="yes"/>
      <point x="120" y="290" type="line" smooth="yes"/>
      <point x="120" y="405"/>
      <point x="145" y="460"/>
      <point x="300" y="460" type="curve"/>
      <point x="450" y="460"/>
      <point x="475" y="405"/>
      <point x="475" y="290" type="curve" smooth="yes"/>
      <point x="475" y="210" type="line"/>
      <point x="475" y="95"/>
      <point x="450" y="40"/>
      <point x="300" y="40" type="curve"/>
      <point x="145" y="40"/>
      <point x="120" y="95"/>
    </contour>
    <contour>
      <point x="300.0" y="500.0" type="move" name="top"/>
    </contour>
    <contour>
      <point x="700.0" y="500.0" type="move" name="top"/>
    </contour>
  </outline>
</glyph>
<glyph name="dotaccent" format="1">
  <advance width="200"/>
  <unicode hex="02D9"/>
  <outline>
    <contour>
      <point x="140" y="665" type="curve"/>
      <point x="140" y="635"/>
      <point x="130" y="625"/>
      <point x="100" y="625" type="curve"/>
      <point x="70" y="625"/>
      <point x="60" y="635"/>
      <point x="60" y="665" type="curve"/>
      <point x="60" y="695"/>
      <point x="70" y="705"/>
      <point x="100" y="705" type="curve"/>
      <point x="130" y="705"/>
      <point x="140" y="695"/>
    </contour>
    <contour>
      <point x="100.0" y="500.0" type="move" name="_top"/>
    </contour>
  </outline>
</glyph>
<glyph name="ring" format="1">
  <advance width="400"/>
  <unicode hex="02DA"/>
  <outline>
    <contour>
      <point x="290" y="660" type="curve" smooth="yes"/>
      <point x="290.0" y="629.444444444"/>
      <point x="270.0" y="605.0"/>
      <point x="200" y="605" type="curve"/>
      <point x="130.0" y="605.0"/>
      <point x="110.0" y="629.444444444"/>
      <point x="110" y="660" type="curve" smooth="yes"/>
      <point x="110.0" y="690.555555556"/>
      <point x="130.0" y="715.0"/>
      <point x="200" y="715" type="curve"/>
      <point x="270.0" y="715.0"/>
      <point x="290.0" y="690.555555556"/>
    </contour>
    <contour>
      <point x="335" y="660" type="curve" smooth="yes"/>
      <point x="335.0" y="720.454545455"/>
      <point x="295.0" y="755.0"/>
      <point x="200" y="755" type="curve"/>
      <point x="105.0" y="755.0"/>
      <point x="65.0" y="720.454545455"/>
      <point x="65" y="660" type="curve" smooth="yes"/>
      <point x="65.0" y="599.545454545"/>
      <point x="105.0" y="565.0"/>
      <point x="200" y="565" type="curve"/>
      <point x="295.0" y="565.0"/>
      <point x="335.0" y="599.545454545"/>
    </contour>
    <contour>
      <point x="200" y="500" type="move" name="_top"/>
    </contour>
  </outline>
</glyph>
<glyph name="dagger" format="1">
  <advance width="600"/>
  <unicode hex="2020"/>
  <outline>
    <contour>
      <point x="275" y="-100" type="line"/>
      <point x="325" y="-100" type="line"/>
      <point x="325" y="375" type="line"/>
      <point x="315" y="475" type="line"/>
      <point x="325" y="575" type="line"/>
      <point x="325" y="700" type="line"/>
      <point x="275" y="700" type="line"/>
      <point x="275" y="575" type="line"/>
      <point x="285" y="475" type="line"/>
      <point x="275" y="375" type="line"/>
    </contour>
    <contour>
      <point x="25" y="450" type="line"/>
      <point x="200" y="450" type="line"/>
      <point x="300" y="460" type="line"/>
      <point x="400" y="450" type="line"/>
      <point x="575" y="450" type="line"/>
      <point x="575" y="500" type="line"/>
      <point x="400" y="500" type="line"/>
      <point x="300" y="490" type="line"/>
      <point x="200" y="500" type="line"/>
      <point x="25" y="500" type="line"/>
    </contour>
  </outline>
</glyph>
<glyph name="bullet" format="1">
  <advance width="200"/>
  <unicode hex="2022"/>
  <outline>
    <contour>
      <point x="200" y="225" type="line"/>
      <point x="200" y="275" type="line"/>
      <point x="155" y="275" type="line" smooth="yes"/>
      <point x="135" y="275"/>
      <point x="125" y="265"/>
      <point x="110" y="250" type="curve"/>
      <point x="100" y="260" type="line"/>
      <point x="120" y="270"/>
      <point x="125" y="285"/>
      <point x="125" y="305" type="curve" smooth="yes"/>
      <point x="125" y="350" type="line"/>
      <point x="75" y="350" type="line"/>
      <point x="75" y="305" type="line" smooth="yes"/>
      <point x="75" y="285"/>
      <point x="85" y="275"/>
      <point x="100" y="260" type="curve"/>
      <point x="90" y="250" type="line"/>
      <point x="75" y="265"/>
      <point x="65" y="275"/>
      <point x="45" y="275" type="curve" smooth="yes"/>
      <point x="0" y="275" type="line"/>
      <point x="0" y="225" type="line"/>
      <point x="45" y="225" type="line" smooth="yes"/>
      <point x="65" y="225"/>
      <point x="75" y="235"/>
      <point x="90" y="250" type="curve"/>
      <point x="100" y="240" type="line"/>
      <point x="85" y="225"/>
      <point x="75" y="215"/>
      <point x="75" y="195" type="curve" smooth="yes"/>
      <point x="75" y="150" type="line"/>
      <point x="125" y="150" type="line"/>
      <point x="125" y="195" type="line" smooth="yes"/>
      <point x="125" y="215.0"/>
      <point x="117.681068755" y="228.21262083"/>
      <point x="100" y="240" type="curve"/>
      <point x="110" y="250" type="line"/>
      <point x="125" y="235"/>
      <point x="135" y="225"/>
      <point x="155" y="225" type="curve" smooth="yes"/>
    </contour>
  </outline>
</glyph>
<glyph name="ellipsis" format="1">
  <advance width="600"/>
  <unicode hex="2026"/>
  <outline>
    <contour>
      <point x="70" y="0" type="line"/>
      <point x="130" y="0" type="line"/>
      <point x="130" y="60" type="line"/>
      <point x="70" y="60" type="line"/>
    </contour>
    <contour>
      <point x="270" y="0" type="line"/>
      <point x="330" y="0" type="line"/>
      <point x="330" y="60" type="line"/>
      <point x="270" y="60" type="line"/>
    </contour>
    <contour>
      <point x="470" y="0" type="line"/>
      <point x="530" y="0" type="line"/>
      <point x="530" y="60" type="line"/>
      <point x="470" y="60" type="line"/>
    </contour>
  </outline>
</glyph>
<glyph name="perthousand" format="1">
  <advance width="1000"/>
  <unicode hex="2030"/>
  <outline>
    <contour>
      <point x="100" y="0" type="line"/>
      <point x="165" y="0" type="line"/>
      <point x="700" y="700" type="line"/>
      <point x="635" y="700" type="line"/>
    </contour>
    <contour>
      <point x="810" y="-10" type="curve"/>
      <point x="895" y="-10"/>
      <point x="945" y="40"/>
      <point x="945" y="150" type="curve"/>
      <point x="945" y="260"/>
      <point x="895" y="310"/>
      <point x="810" y="310" type="curve"/>
      <point x="760.0" y="310.0"/>
      <point x="720" y="295"/>
      <point x="700" y="250" type="curve"/>
      <point x="680" y="295"/>
      <point x="640.0" y="310.0"/>
      <point x="590" y="310" type="curve"/>
      <point x="505" y="310"/>
      <point x="455" y="260"/>
      <point x="455" y="150" type="curve"/>
      <point x="455" y="40"/>
      <point x="505" y="-10"/>
      <point x="590" y="-10" type="curve"/>
      <point x="640.0" y="-10.0"/>
      <point x="680" y="5"/>
      <point x="700" y="50" type="curve"/>
      <point x="720" y="5"/>
      <point x="760.0" y="-10.0"/>
    </contour>
    <contour>
      <point x="675" y="150" type="curve"/>
      <point x="675" y="70"/>
      <point x="650" y="40"/>
      <point x="590" y="40" type="curve"/>
      <point x="530" y="40"/>
      <point x="505" y="70"/>
      <point x="505" y="150" type="curve"/>
      <point x="505" y="230"/>
      <point x="530" y="260"/>
      <point x="590" y="260" type="curve"/>
      <point x="650" y="260"/>
      <point x="675" y="230"/>
    </contour>
    <contour>
      <point x="895" y="150" type="curve"/>
      <point x="895" y="70"/>
      <point x="870" y="40"/>
      <point x="810" y="40" type="curve"/>
      <point x="750" y="40"/>
      <point x="725" y="70"/>
      <point x="725" y="150" type="curve"/>
      <point x="725" y="230"/>
      <point x="750" y="260"/>
      <point x="810" y="260" type="curve"/>
      <point x="870" y="260"/>
      <point x="895" y="230"/>
    </contour>
    <component base="zero.sup"/>
  </outline>
</glyph>
<glyph name="guilsinglleft" format="1">
  <advance width="200"/>
  <unicode hex="2039"/>
  <outline>
    <contour>
      <point x="20" y="250" type="line"/>
      <point x="70" y="250" type="line"/>
      <point x="170" y="400" type="line"/>
      <point x="120" y="400" type="line"/>
    </contour>
    <contour>
      <point x="20" y="250" type="line"/>
      <point x="120" y="100" type="line"/>
      <point x="170" y="100" type="line"/>
      <point x="70" y="250" type="line"/>
    </contour>
  </outline>
</glyph>
<glyph name="trademark" format="1">
  <advance width="800"/>
  <unicode hex="2122"/>
  <outline>
    <contour>
      <point x="125" y="400" type="line"/>
      <point x="125" y="700" type="line"/>
      <point x="75" y="700" type="line"/>
      <point x="75" y="400" type="line"/>
    </contour>
    <contour>
      <point x="225" y="700" type="line"/>
      <point x="-25" y="700" type="line"/>
      <point x="-25" y="650" type="line"/>
      <point x="225" y="650" type="line"/>
    </contour>
    <contour>
      <point x="275" y="400" type="line"/>
      <point x="325" y="400" type="line"/>
      <point x="325" y="700" type="line"/>
      <point x="275" y="700" type="line"/>
    </contour>
    <contour>
      <point x="675" y="400" type="line"/>
      <point x="725" y="400" type="line"/>
      <point x="725" y="700" type="line"/>
      <point x="675" y="700" type="line"/>
    </contour>
    <contour>
      <point x="320" y="630" type="line"/>
      <point x="430" y="525"/>
      <point x="475" y="470"/>
      <point x="475" y="430" type="curve" smooth="yes"/>
      <point x="475" y="400" type="line"/>
      <point x="525" y="400" type="line"/>
      <point x="520" y="430" type="line" smooth="yes"/>
      <point x="510" y="485"/>
      <point x="500" y="525"/>
      <point x="385" y="640" type="curve" smooth="yes"/>
      <point x="325" y="700" type="line"/>
    </contour>
    <contour>
      <point x="680" y="630" type="curve"/>
      <point x="675" y="700" type="line"/>
      <point x="615" y="640" type="line" smooth="yes"/>
      <point x="500" y="525"/>
      <point x="490" y="485"/>
      <point x="480" y="430" type="curve" smooth="yes"/>
      <point x="475" y="400" type="line"/>
      <point x="525" y="400" type="line"/>
      <point x="525" y="430" type="line" smooth="yes"/>
      <point x="525" y="470"/>
      <point x="570" y="525"/>
    </contour>
  </outline>
</glyph>
<glyph name="northwestarrow" format="1">
  <advance width="800"/>
  <unicode hex="2196"/>
  <outline>
    <contour>
      <point x="705" y="80" type="line"/>
      <point x="255" y="530" type="line"/>
      <point x="90" y="680" type="line"/>
      <point x="70" y="660" type="line"/>
      <point x="220" y="495" type="line"/>
      <point x="670" y="45" type="line"/>
    </contour>
    <contour>
      <point x="50" y="680" type="line"/>
      <point x="50" y="145" type="line"/>
      <point x="90" y="105" type="line"/>
      <point x="105" y="115" type="line"/>
      <point x="100" y="510" type="line"/>
      <point x="90" y="645" type="line"/>
      <point x="100" y="645" type="line"/>
      <point x="70" y="695" type="line"/>
    </contour>
    <contour>
      <point x="70" y="700" type="line"/>
      <point x="55" y="680" type="line"/>
      <point x="90" y="635" type="line"/>
      <point x="105" y="650" type="line"/>
      <point x="105" y="660" type="line"/>
      <point x="240" y="650" type="line"/>
      <point x="635" y="645" type="line"/>
      <point x="645" y="660" type="line"/>
      <point x="605" y="700" type="line"/>
    </contour>
  </outline>
</glyph>
<glyph name="notequal" format="1">
  <advance width="600"/>
  <unicode hex="2260"/>
  <outline>
    <contour>
      <point x="550" y="200" type="line"/>
      <point x="550" y="250" type="line"/>
      <point x="50" y="250" type="line"/>
      <point x="50" y="200" type="line"/>
    </contour>
    <contour>
      <point x="550" y="450" type="line"/>
      <point x="550" y="500" type="line"/>
      <point x="50" y="500" type="line"/>
      <point x="50" y="450" type="line"/>
    </contour>
    <contour>
      <point x="50" y="70" type="line"/>
      <point x="115" y="70" type="line"/>
      <point x="550" y="625" type="line"/>
      <point x="485" y="625" type="line"/>
    </contour>
  </outline>
</glyph>
<glyph name="lessequal" format="1">
  <advance width="400"/>
  <unicode hex="2264"/>
  <outline>
    <contour>
      <point x="40" y="315" type="line"/>
      <point x="280" y="150" type="line"/>
      <point x="350" y="150" type="line"/>
      <point x="350" y="165" type="line"/>
      <point x="155" y="295" type="line"/>
      <point x="100" y="325" type="line"/>
      <point x="40" y="335" type="line"/>
    </contour>
    <contour>
      <point x="40" y="335" type="line"/>
      <point x="40" y="315" type="line"/>
      <point x="100" y="325" type="line"/>
      <point x="155" y="355" type="line"/>
      <point x="350" y="485" type="line"/>
      <point x="350" y="500" type="line"/>
      <point x="280" y="500" type="line"/>
    </contour>
    <contour>
      <point x="350" y="0" type="line"/>
      <point x="350" y="50" type="line"/>
      <point x="50" y="50" type="line"/>
      <point x="50" y="0" type="line"/>
    </contour>
  </outline>
</glyph>
<glyph name="heavyverticalandhorizontal" format="1">
  <advance width="1000"/>
  <unicode hex="254B"/>
  <outline>
    <contour>
      <point x="50" y="225" type="line"/>
      <point x="950" y="225" type="line"/>
      <point x="950" y="275" type="line"/>
      <point x="50" y="275" type="line"/>
    </contour>
    <contour>
      <point x="535" y="-200" type="line"/>
      <point x="535" y="700" type="line"/>
      <point x="485" y="700" type="line"/>
      <point x="485" y="-200" type="line"/>
    </contour>
  </outline>
</glyph>
<glyph name="squareuplefttolowrightfill" format="1">
  <advance width="1000"/>
  <unicode hex="25A7"/>
  <outline>
    <contour>
      <point x="380" y="-160" type="line"/>
      <point x="95" y="125" type="line"/>
      <point x="95" y="55" type="line"/>
      <point x="310" y="-160" type="line"/>
    </contour>
    <contour>
      <point x="620" y="655" type="line"/>
      <point x="905" y="370" type="line"/>
      <point x="905" y="440" type="line"/>
      <point x="690" y="655" type="line"/>
    </contour>
    <contour>
      <point x="665" y="-160" type="line"/>
      <point x="95" y="410" type="line"/>
      <point x="95" y="340" type="line"/>
      <point x="595" y="-160" type="line"/>
    </contour>
    <contour>
      <point x="340" y="655" type="line"/>
      <point x="910" y="85" type="line"/>
      <point x="910" y="155" type="line"/>
      <point x="410" y="655" type="line"/>
    </contour>
    <contour>
      <point x="95" y="620" type="line"/>
      <point x="870" y="-155" type="line"/>
      <point x="905" y="-155" type="line"/>
      <point x="905" y="-120" type="line"/>
      <point x="130" y="655" type="line"/>
      <point x="95" y="655" type="line"/>
    </contour>
    <component base="whitelargesquare"/>
  </outline>
</glyph>
<glyph name="squarediagonalcrosshatchfill" format="1">
  <advance width="1000"/>
  <unicode hex="25A9"/>
  <outline>
    <contour>
      <point x="90" y="625" type="line"/>
      <point x="885" y="-170" type="line"/>
      <point x="935" y="-150" type="line"/>
      <point x="95" y="690" type="line"/>
    </contour>
    <contour>
      <point x="920" y="635" type="line"/>
      <point x="900" y="690" type="line"/>
      <point x="65" y="-145" type="line"/>
      <point x="115" y="-170" type="line"/>
    </contour>
    <component base="diamondinsquare"/>
  </outline>
</glyph>
<glyph name="blacksmallsquare" format="1">
  <advance width="1000"/>
  <unicode hex="25AA"/>
  <outline>
    <contour>
      <point x="350" y="100" type="line"/>
      <point x="650" y="100" type="line"/>
      <point x="650" y="400" type="line"/>
      <point x="350" y="400" type="line"/>
    </contour>
  </outline>
</glyph>
<glyph name="whitesmallsquare" format="1">
  <advance width="1000"/>
  <unicode hex="25AB"/>
  <outline>
    <contour>
      <point x="325" y="75" type="line"/>
      <point x="675" y="75" type="line"/>
      <point x="675" y="425" type="line"/>
      <point x="325" y="425" type="line"/>
    </contour>
    <contour>
      <point x="375" y="125" type="line"/>
      <point x="375" y="375" type="line"/>
      <point x="625" y="375" type="line"/>
      <point x="625" y="125" type="line"/>
    </contour>
  </outline>
</glyph>
<glyph name="whitediamond" format="1">
  <advance width="1000"/>
  <unicode hex="25C7"/>
  <outline>
    <contour>
      <point x="500" y="-175" type="line"/>
      <point x="75" y="250" type="line"/>
      <point x="500" y="675" type="line"/>
      <point x="925" y="250" type="line"/>
    </contour>
    <contour>
      <point x="500" y="-245" type="line"/>
      <point x="995" y="250" type="line"/>
      <point x="500" y="745" type="line"/>
      <point x="5" y="250" type="line"/>
    </contour>
  </outline>
</glyph>
<glyph name="fisheye" format="1">
  <advance width="1000"/>
  <unicode hex="25C9"/>
  <outline>
    <contour>
      <point x="500" y="120" type="curve" smooth="yes"/>
      <point x="416.94444444444446" y="120.0"/>
      <point x="370.0" y="165.0"/>
      <point x="370" y="250" type="curve" smooth="yes"/>
      <point x="370.0" y="335.0"/>
      <point x="416.94444444444446" y="380.0"/>
      <point x="500" y="380" type="curve" smooth="yes"/>
      <point x="586.6666666666666" y="380.0"/>
      <point x="630.0" y="335.0"/>
      <point x="630" y="250" type="curve" smooth="yes"/>
      <point x="630.0" y="165.0"/>
      <point x="586.6666666666666" y="120.0"/>
    </contour>
    <component base="whitecircle"/>
  </outline>
</glyph>
<glyph name="bullseye" format="1">
  <advance width="1000"/>
  <unicode hex="25CE"/>
  <outline>
    <contour>
      <point x="500" y="15" type="curve" smooth="yes"/>
      <point x="655.0" y="15.0"/>
      <point x="735.0" y="91.82692307692307"/>
      <point x="735" y="250" type="curve" smooth="yes"/>
      <point x="735.0" y="403.6538461538462"/>
      <point x="655.0" y="485.0"/>
      <point x="500" y="485" type="curve" smooth="yes"/>
      <point x="346.3461538461538" y="485.0"/>
      <point x="265.0" y="405.0"/>
      <point x="265" y="250" type="curve" smooth="yes"/>
      <point x="265.0" y="91.82692307692307"/>
      <point x="345.0" y="15.0"/>
    </contour>
    <contour>
      <point x="500" y="60" type="curve" smooth="yes"/>
      <point x="373.33333333333337" y="60.0"/>
      <point x="310.0" y="124.99999999999999"/>
      <point x="310" y="250" type="curve" smooth="yes"/>
      <point x="310.0" y="375.0"/>
      <point x="375.0" y="440.0"/>
      <point x="500" y="440" type="curve" smooth="yes"/>
      <point x="625.0" y="440.0"/>
      <point x="690.0" y="375.0"/>
      <point x="690" y="250" type="curve" smooth="yes"/>
      <point x="690.0" y="124.99999999999999"/>
      <point x="626.6666666666666" y="60.0"/>
    </contour>
    <component base="whitecircle"/>
  </outline>
</glyph>
<glyph name="circlewithlefthalfblack" format="1">
  <advance width="1000"/>
  <unicode hex="25D0"/>
  <outline>
    <contour>
      <point x="500" y="-165" type="line"/>
      <point x="770" y="-165"/>
      <point x="915" y="-25"/>
      <point x="915" y="250" type="curve" smooth="yes"/>
      <point x="915" y="520"/>
      <point x="770" y="665"/>
      <point x="500" y="665" type="curve"/>
    </contour>
    <component base="whitecircle"/>
  </outline>
</glyph>
<glyph name="circlewithrighthalfblack" format="1">
  <advance width="1000"/>
  <unicode hex="25D1"/>
  <outline>
    <contour>
      <point x="500" y="-165" type="curve"/>
      <point x="500" y="665" type="line"/>
      <point x="230" y="665"/>
      <point x="85" y="520"/>
      <point x="85" y="250" type="curve" smooth="yes"/>
      <point x="85" y="-25"/>
      <point x="230" y="-165"/>
    </contour>
    <component base="whitecircle"/>
  </outline>
</glyph>
<glyph name="circlewithupperhalfblack" format="1">
  <advance width="1000"/>
  <unicode hex="25D3"/>
  <outline>
    <contour>
      <point x="915" y="250" type="line"/>
      <point x="915" y="520"/>
      <point x="775" y="665"/>
      <point x="500" y="665" type="curve" smooth="yes"/>
      <point x="230" y="665"/>
      <point x="85" y="520"/>
      <point x="85" y="250" type="curve"/>
    </contour>
    <component base="whitecircle"/>
  </outline>
</glyph>
<glyph name="squarewithrighthalfblack" format="1">
  <advance width="1000"/>
  <unicode hex="25E8"/>
  <outline>
    <contour>
      <point x="500" y="-180" type="line"/>
      <point x="930" y="-180" type="line"/>
      <point x="930" y="675" type="line"/>
      <point x="500" y="675" type="line"/>
    </contour>
    <component base="whitelargesquare"/>
  </outline>
</glyph>
<glyph name="squarelowrightdiagonalhalfblack" format="1">
  <advance width="1000"/>
  <unicode hex="25EA"/>
  <outline>
    <contour>
      <point x="920" y="670" type="line"/>
      <point x="80" y="-170" type="line"/>
      <point x="920" y="-170" type="line"/>
    </contour>
    <component base="whitelargesquare"/>
  </outline>
</glyph>
<glyph name="squarewithlowerleftquadrant" format="1">
  <advance width="1000"/>
  <unicode hex="25F1"/>
  <outline>
    <contour>
      <point x="100" y="275" type="line"/>
      <point x="100" y="225" type="line"/>
      <point x="525" y="225" type="line"/>
      <point x="525" y="275" type="line"/>
    </contour>
    <contour>
      <point x="525" y="275" type="line"/>
      <point x="475" y="275" type="line"/>
      <point x="475" y="-150" type="line"/>
      <point x="525" y="-150" type="line"/>
    </contour>
    <component base="whitelargesquare"/>
  </outline>
</glyph>
<glyph name="diamondinsquare" format="1">
  <advance width="1000"/>
  <unicode hex="26CB"/>
  <outline>
    <contour>
      <point x="95" y="250" type="line"/>
      <point x="500" y="-155" type="line"/>
      <point x="520" y="-105" type="line"/>
      <point x="145" y="270" type="line"/>
    </contour>
    <contour>
      <point x="495" y="590" type="line"/>
      <point x="855" y="230" type="line"/>
      <point x="905" y="250" type="line"/>
      <point x="500" y="655" type="line"/>
    </contour>
    <contour>
      <point x="905" y="250" type="line"/>
      <point x="845" y="260" type="line"/>
      <point x="490" y="-95" type="line"/>
      <point x="500" y="-155" type="line"/>
    </contour>
    <contour>
      <point x="520" y="600" type="line"/>
      <point x="500" y="655" type="line"/>
      <point x="95" y="250" type="line"/>
      <point x="145" y="225" type="line"/>
    </contour>
    <component base="whitelargesquare"/>
  </outline>
</glyph>
<glyph name="victoryhand" format="1">
  <advance width="600"/>
  <unicode hex="270C"/>
  <outline>
    <contour>
      <point x="319.9839623567258" y="455.0694964541884"/>
      <point x="350.0" y="490.0"/>
      <point x="385" y="490" type="curve" smooth="yes"/>
      <point x="417.8125" y="490.0"/>
      <point x="460.0" y="450.0"/>
      <point x="460" y="345" type="curve" smooth="yes"/>
      <point x="460.0" y="245.0"/>
      <point x="425" y="190"/>
      <point x="390" y="190" type="curve" smooth="yes"/>
      <point x="348.46153846153845" y="190.0"/>
      <point x="330.0" y="225.0"/>
      <point x="330" y="265" type="curve"/>
      <point x="330" y="285"/>
      <point x="340" y="310"/>
      <point x="345" y="325" type="curve"/>
      <point x="350" y="365" type="line"/>
      <point x="360" y="350" type="line"/>
      <point x="360" y="265" type="line" smooth="yes"/>
      <point x="360" y="239.28571428571428"/>
      <point x="370.0" y="220.0"/>
      <point x="390" y="220" type="curve" smooth="yes"/>
      <point x="420.0" y="220.0"/>
      <point x="425.0" y="290.6521739130435"/>
      <point x="425" y="345" type="curve" smooth="yes"/>
      <point x="425.0" y="405.23809523809524"/>
      <point x="405.0" y="460.0"/>
      <point x="380" y="460" type="curve" smooth="yes"/>
      <point x="365.0" y="460.0"/>
      <point x="360" y="446.0"/>
      <point x="360" y="425" type="curve" smooth="yes"/>
      <point x="360" y="345" type="line"/>
      <point x="335" y="390" type="line"/>
    </contour>
    <contour>
      <point x="445" y="385" type="line"/>
      <point x="450" y="425"/>
      <point x="455" y="450"/>
      <point x="490" y="450" type="curve" smooth="yes"/>
      <point x="515" y="450"/>
      <point x="565" y="420"/>
      <point x="565" y="320" type="curve" smooth="yes"/>
      <point x="565" y="230"/>
      <point x="525" y="180"/>
      <point x="490" y="180" type="curve" smooth="yes"/>
      <point x="455" y="180"/>
      <point x="440" y="205"/>
      <point x="440" y="270" type="curve"/>
      <point x="460" y="345" type="line"/>
      <point x="460" y="260" type="line" smooth="yes"/>
      <point x="460" y="235.0"/>
      <point x="460.0" y="210.0"/>
      <point x="490" y="210" type="curve" smooth="yes"/>
      <point x="520.0" y="210.0"/>
      <point x="535.0" y="276.0"/>
      <point x="535" y="320" type="curve" smooth="yes"/>
      <point x="535.0" y="375.55555555555554"/>
      <point x="510.0" y="420.0"/>
      <point x="485" y="420" type="curve" smooth="yes"/>
      <point x="460.0" y="420.0"/>
      <point x="460" y="390.0"/>
      <point x="460" y="365" type="curve" smooth="yes"/>
      <point x="460" y="345" type="line"/>
    </contour>
    <contour>
      <point x="510" y="0" type="curve"/>
      <point x="480" y="-25"/>
      <point x="395" y="-50"/>
      <point x="315" y="-50" type="curve" smooth="yes"/>
      <point x="240" y="-50"/>
      <point x="170" y="-30"/>
      <point x="140" y="10" type="curve" smooth="yes"/>
      <point x="90" y="80"/>
      <point x="80" y="235"/>
      <point x="85" y="265" type="curve" smooth="yes"/>
      <point x="90" y="305"/>
      <point x="110" y="340"/>
      <point x="220" y="385" type="curve" smooth="yes"/>
      <point x="265" y="405"/>
      <point x="330" y="410"/>
      <point x="350" y="380" type="curve" smooth="yes"/>
      <point x="365" y="355"/>
      <point x="365" y="315"/>
      <point x="270" y="250" type="curve" smooth="yes"/>
      <point x="255" y="240" type="line" smooth="yes"/>
      <point x="234.34019076233258" y="226.22679384155504"/>
      <point x="215" y="230"/>
      <point x="205" y="245" type="curve"/>
      <point x="249.16662342083504" y="269.537013011575"/>
      <point x="351.46862108106575" y="338.1642236486678"/>
      <point x="330" y="365" type="curve" smooth="yes"/>
      <point x="321.91098901191054" y="373.08901098808946"/>
      <point x="308.3158290840821" y="391.14576726957637"/>
      <point x="230" y="355" type="curve" smooth="yes"/>
      <point x="147.6395784261624" y="308.67226286471634"/>
      <point x="120.58816165429371" y="293.5289699257623"/>
      <point x="115" y="260" type="curve" smooth="yes"/>
      <point x="109.74657993018431" y="228.47947958110586"/>
      <point x="119.43743612458574" y="101.12512775082851"/>
      <point x="155" y="30" type="curve"/>
      <point x="201.700906917956" y="55.944948287753334"/>
      <point x="270.0" y="70.0"/>
      <point x="335" y="70" type="curve" smooth="yes"/>
      <point x="398.8709677419355" y="70.0"/>
      <point x="460" y="60"/>
      <point x="500" y="25" type="curve"/>
      <point x="520" y="90"/>
      <point x="519.6152394764082" y="171.3466618325712"/>
      <point x="510" y="205" type="curve"/>
      <point x="530" y="215" type="line"/>
      <point x="555" y="150"/>
      <point x="550" y="75"/>
    </contour>
    <contour>
      <point x="380" y="10" type="curve" smooth="yes"/>
      <point x="380.0" y="25.0"/>
      <point x="373.57142857142856" y="35.0"/>
      <point x="335" y="35" type="curve"/>
      <point x="286.1111111111111" y="35.0"/>
      <point x="280.0" y="25.0"/>
      <point x="280" y="10" type="curve" smooth="yes"/>
      <point x="280.0" y="-5.0"/>
      <point x="286.1111111111111" y="-15.0"/>
      <point x="335" y="-15" type="curve"/>
      <point x="373.57142857142856" y="-15.0"/>
      <point x="380.0" y="-5.0"/>
    </contour>
    <contour>
      <point x="245" y="425" type="curve"/>
      <point x="225.0" y="425.0"/>
      <point x="211.89450317008877" y="428.908800215906"/>
      <point x="200" y="475" type="curve" smooth="yes"/>
      <point x="160" y="630" type="line" smooth="yes"/>
      <point x="144.25185782129725" y="691.0240509424732"/>
      <point x="135" y="710"/>
      <point x="115" y="705" type="curve" smooth="yes"/>
      <point x="75" y="700"/>
      <point x="60" y="580"/>
      <point x="135" y="335" type="curve"/>
      <point x="140" y="315" type="line"/>
      <point x="135" y="315" type="line"/>
      <point x="120" y="315"/>
      <point x="105" y="320"/>
      <point x="95" y="360" type="curve" smooth="yes"/>
      <point x="10" y="690"/>
      <point x="75" y="725"/>
      <point x="110" y="735" type="curve" smooth="yes"/>
      <point x="135" y="740"/>
      <point x="165" y="730"/>
      <point x="185" y="645" type="curve" smooth="yes"/>
      <point x="230" y="470" type="line" smooth="yes"/>
      <point x="235" y="455"/>
      <point x="235" y="450"/>
      <point x="245" y="450" type="curve" smooth="yes"/>
      <point x="255" y="450"/>
      <point x="255" y="455"/>
      <point x="260" y="470" type="curve" smooth="yes"/>
      <point x="305" y="655" type="line" smooth="yes"/>
      <point x="325" y="730"/>
      <point x="355" y="745"/>
      <point x="385" y="740" type="curve" smooth="yes"/>
      <point x="415" y="730"/>
      <point x="460" y="715"/>
      <point x="420" y="515" type="curve" smooth="yes"/>
      <point x="415" y="490"/>
      <point x="405" y="480"/>
      <point x="395" y="475" type="curve"/>
      <point x="380" y="470" type="line"/>
      <point x="420" y="645"/>
      <point x="410" y="700"/>
      <point x="380" y="710" type="curve" smooth="yes"/>
      <point x="360" y="715"/>
      <point x="345.48484394562956" y="700.2188375663371"/>
      <point x="330" y="640" type="curve" smooth="yes"/>
      <point x="285" y="465" type="line" smooth="yes"/>
      <point x="276.05876767283553" y="430.228540949916"/>
      <point x="261.0" y="425.0"/>
    </contour>
  </outline>
</glyph>
<glyph name="whitelargesquare" format="1">
  <advance width="1000"/>
  <unicode hex="2B1C"/>
  <outline>
    <contour>
      <point x="100" y="-150" type="line"/>
      <point x="100" y="650" type="line"/>
      <point x="900" y="650" type="line"/>
      <point x="900" y="-150" type="line"/>
    </contour>
    <contour>
      <point x="50" y="-200" type="line"/>
      <point x="950" y="-200" type="line"/>
      <point x="950" y="700" type="line"/>
      <point x="50" y="700" type="line"/>
    </contour>
  </outline>
</glyph>
<glyph name="twistedrightwardsarrows" format="1">
  <advance width="1200"/>
  <unicode hex="1F500"/>
  <outline>
    <contour>
      <point x="1125" y="465" type="line"/>
      <point x="890" y="700" type="line"/>
      <point x="830" y="700" type="line"/>
      <point x="830" y="685" type="line"/>
      <point x="970" y="550" type="line"/>
      <point x="1070" y="460" type="line"/>
      <point x="1065" y="455" type="line"/>
      <point x="1125" y="440" type="line"/>
    </contour>
    <contour>
      <point x="1125" y="435" type="line"/>
      <point x="1125" y="460" type="line"/>
      <point x="1065" y="470" type="line"/>
      <point x="1065" y="445" type="line"/>
      <point x="1070" y="440" type="line"/>
      <point x="970" y="350" type="line"/>
      <point x="905" y="290" type="line"/>
      <point x="905" y="275" type="line"/>
      <point x="965" y="275" type="line"/>
    </contour>
    <contour>
      <point x="1125" y="35" type="line"/>
      <point x="1125" y="60" type="line"/>
      <point x="1065" y="45" type="line"/>
      <point x="1070" y="40" type="line"/>
      <point x="970" y="-50" type="line"/>
      <point x="830" y="-185" type="line"/>
      <point x="830" y="-200" type="line"/>
      <point x="890" y="-200" type="line"/>
    </contour>
    <contour>
      <point x="1125" y="65" type="line"/>
      <point x="965" y="225" type="line"/>
      <point x="905" y="225" type="line"/>
      <point x="905" y="210" type="line"/>
      <point x="970" y="150" type="line"/>
      <point x="1070" y="60" type="line"/>
      <point x="1065" y="55" type="line"/>
      <point x="1065" y="30" type="line"/>
      <point x="1125" y="40" type="line"/>
    </contour>
    <contour>
      <point x="100" y="425" type="line"/>
      <point x="185" y="425" type="line" smooth="yes"/>
      <point x="455" y="425"/>
      <point x="670" y="10"/>
      <point x="925" y="25" type="curve" smooth="yes"/>
      <point x="1100" y="35" type="line"/>
      <point x="1100" y="65" type="line"/>
      <point x="910" y="75" type="line" smooth="yes"/>
      <point x="670" y="85"/>
      <point x="480" y="475"/>
      <point x="190" y="475" type="curve" smooth="yes"/>
      <point x="100" y="475" type="line"/>
    </contour>
    <contour>
      <point x="730" y="360"/>
      <point x="815" y="420"/>
      <point x="910" y="425" type="curve" smooth="yes"/>
      <point x="1100" y="435" type="line"/>
      <point x="1100" y="465" type="line"/>
      <point x="925" y="475" type="line" smooth="yes"/>
      <point x="810" y="480"/>
      <point x="705" y="405"/>
      <point x="600" y="315" type="curve"/>
      <point x="640" y="285" type="line"/>
    </contour>
    <contour>
      <point x="390" y="140"/>
      <point x="290" y="75"/>
      <point x="185" y="75" type="curve" smooth="yes"/>
      <point x="100" y="75" type="line"/>
      <point x="100" y="25" type="line"/>
      <point x="190" y="25" type="line" smooth="yes"/>
      <point x="315" y="25"/>
      <point x="425" y="100"/>
      <point x="525" y="185" type="curve"/>
      <point x="485" y="220" type="line"/>
    </contour>
  </outline>
</glyph>
<glyph name="B.small" format="1">
  <advance width="600"/>
  <outline>
    <contour>
      <point x="380" y="0" type="line"/>
      <point x="465.0" y="0.0"/>
      <point x="530.0" y="41.5384615385"/>
      <point x="530" y="135" type="curve"/>
      <point x="480" y="135" type="line"/>
      <point x="480.0" y="65.9375"/>
      <point x="440.0" y="50.0"/>
      <point x="380" y="50" type="curve"/>
      <point x="110" y="50" type="line"/>
      <point x="110" y="0" type="line"/>
    </contour>
    <contour>
      <point x="380" y="225" type="line"/>
      <point x="410.0" y="225.0"/>
      <point x="480" y="210"/>
      <point x="480" y="135" type="curve"/>
      <point x="530" y="135" type="line"/>
      <point x="530" y="225"/>
      <point x="460.0" y="275.0"/>
      <point x="380" y="275" type="curve"/>
      <point x="75" y="275" type="line"/>
      <point x="105" y="225" type="line"/>
    </contour>
    <contour>
      <point x="125" y="500" type="line"/>
      <point x="75" y="500" type="line"/>
      <point x="75" y="0" type="line"/>
      <point x="125" y="0" type="line"/>
    </contour>
    <contour>
      <point x="380" y="500" type="curve"/>
      <point x="115" y="500" type="line"/>
      <point x="115" y="450" type="line"/>
      <point x="380" y="450" type="line"/>
      <point x="440.0" y="450.0"/>
      <point x="480.0" y="434.0625"/>
      <point x="480" y="365" type="curve"/>
      <point x="530" y="365" type="line"/>
      <point x="530.0" y="458.461538462"/>
      <point x="465.0" y="500.0"/>
    </contour>
    <contour>
      <point x="380" y="275" type="curve"/>
      <point x="105" y="275" type="line"/>
      <point x="75" y="225" type="line"/>
      <point x="380" y="225" type="line"/>
      <point x="460.0" y="225.0"/>
      <point x="530" y="275"/>
      <point x="530" y="365" type="curve"/>
      <point x="480" y="365" type="line"/>
      <point x="480" y="285"/>
      <point x="410.0" y="275.0"/>
    </contour>
  </outline>
</glyph>
<glyph name="E.small" format="1">
  <advance width="600"/>
  <outline>
    <contour>
      <point x="75" y="0" type="line"/>
      <point x="125" y="0" type="line"/>
      <point x="125" y="500" type="line"/>
      <point x="75" y="500" type="line"/>
    </contour>
    <contour>
      <point x="125" y="0" type="line"/>
      <point x="550" y="0" type="line"/>
      <point x="550" y="50" type="line"/>
      <point x="125" y="50" type="line"/>
    </contour>
    <contour>
      <point x="125" y="450" type="line"/>
      <point x="550" y="450" type="line"/>
      <point x="550" y="500" type="line"/>
      <point x="125" y="500" type="line"/>
    </contour>
    <contour>
      <point x="125" y="225" type="line"/>
      <point x="500" y="225" type="line"/>
      <point x="500" y="275" type="line"/>
      <point x="125" y="275" type="line"/>
    </contour>
    <contour>
      <point x="315" y="450" type="move" name="top"/>
    </contour>
  </outline>
</glyph>
<glyph name="H.small" format="1">
  <advance width="600"/>
  <outline>
    <contour>
      <point x="75" y="0" type="line"/>
      <point x="125" y="0" type="line"/>
      <point x="125" y="500" type="line"/>
      <point x="75" y="500" type="line"/>
    </contour>
    <contour>
      <point x="100" y="225" type="line"/>
      <point x="500" y="225" type="line"/>
      <point x="500" y="275" type="line"/>
      <point x="100" y="275" type="line"/>
    </contour>
    <contour>
      <point x="475" y="0" type="line"/>
      <point x="525" y="0" type="line"/>
      <point x="525" y="500" type="line"/>
      <point x="475" y="500" type="line"/>
    </contour>
  </outline>
</glyph>
<glyph name="L.small" format="1">
  <advance width="400"/>
  <outline>
    <contour>
      <point x="75" y="500" type="line"/>
      <point x="75" y="0" type="line"/>
      <point x="125" y="0" type="line"/>
      <point x="125" y="500" type="line"/>
    </contour>
    <contour>
      <point x="100" y="50" type="line"/>
      <point x="100" y="0" type="line"/>
      <point x="375" y="0" type="line"/>
      <point x="375" y="50" type="line"/>
    </contour>
  </outline>
</glyph>
<glyph name="M.small" format="1">
  <advance width="600"/>
  <outline>
    <contour>
      <point x="75" y="0" type="line"/>
      <point x="125" y="0" type="line"/>
      <point x="125" y="500" type="line"/>
      <point x="75" y="500" type="line"/>
    </contour>
    <contour>
      <point x="95" y="440" type="line"/>
      <point x="225" y="190" type="line" smooth="yes"/>
      <point x="270" y="105"/>
      <point x="275" y="85"/>
      <point x="275" y="30" type="curve" smooth="yes"/>
      <point x="275" y="0" type="line"/>
      <point x="325" y="0" type="line"/>
      <point x="325" y="30" type="line" smooth="yes"/>
      <point x="325" y="95"/>
      <point x="295" y="175"/>
      <point x="235" y="290" type="curve" smooth="yes"/>
      <point x="125" y="500" type="line"/>
    </contour>
    <contour>
      <point x="525" y="0" type="line"/>
      <point x="525" y="500" type="line"/>
      <point x="475" y="500" type="line"/>
      <point x="475" y="0" type="line"/>
    </contour>
    <contour>
      <point x="505" y="440" type="line"/>
      <point x="475" y="500" type="line"/>
      <point x="365" y="290" type="line" smooth="yes"/>
      <point x="305" y="175"/>
      <point x="275" y="95"/>
      <point x="275" y="30" type="curve" smooth="yes"/>
      <point x="275" y="0" type="line"/>
      <point x="325" y="0" type="line"/>
      <point x="325" y="30" type="line" smooth="yes"/>
      <point x="325" y="85"/>
      <point x="330" y="105"/>
      <point x="375" y="190" type="curve" smooth="yes"/>
    </contour>
  </outline>
</glyph>
<glyph name="N.small" format="1">
  <advance width="600"/>
  <outline>
    <contour>
      <point x="125" y="0" type="line"/>
      <point x="125" y="250" type="line"/>
      <point x="120" y="460" type="line"/>
      <point x="125" y="500" type="line"/>
      <point x="75" y="500" type="line"/>
      <point x="75" y="0" type="line"/>
    </contour>
    <contour>
      <point x="525" y="0" type="line"/>
      <point x="525" y="500" type="line"/>
      <point x="475" y="500" type="line"/>
      <point x="475" y="250" type="line"/>
      <point x="480" y="40" type="line"/>
      <point x="475" y="0" type="line"/>
    </contour>
    <contour>
      <point x="510" y="40" type="line"/>
      <point x="125" y="500" type="line"/>
      <point x="90" y="460" type="line"/>
      <point x="475" y="0" type="line"/>
    </contour>
    <contour>
      <point x="310.0" y="450.0" type="move" name="top"/>
    </contour>
  </outline>
</glyph>
<glyph name="OE.small" format="1">
  <advance width="600"/>
  <outline>
    <contour>
      <point x="275" y="360" type="curve" smooth="yes"/>
      <point x="275" y="140" type="line" smooth="yes"/>
      <point x="275" y="60"/>
      <point x="245" y="40"/>
      <point x="200" y="40" type="curve"/>
      <point x="155" y="40"/>
      <point x="125" y="60"/>
      <point x="125" y="140" type="curve" smooth="yes"/>
      <point x="125" y="360" type="line" smooth="yes"/>
      <point x="125" y="440"/>
      <point x="155" y="460"/>
      <point x="200" y="460" type="curve"/>
      <point x="245" y="460"/>
      <point x="275" y="440"/>
    </contour>
    <contour>
      <point x="330" y="0" type="line"/>
      <point x="550" y="0" type="line"/>
      <point x="550" y="50" type="line"/>
      <point x="325" y="50" type="line"/>
      <point x="325" y="225" type="line"/>
      <point x="500" y="225" type="line"/>
      <point x="500" y="275" type="line"/>
      <point x="325" y="275" type="line"/>
      <point x="325" y="450" type="line"/>
      <point x="550" y="450" type="line"/>
      <point x="550" y="500" type="line"/>
      <point x="330" y="500" type="line"/>
      <point x="290" y="465" type="line"/>
      <point x="265" y="500"/>
      <point x="230" y="510"/>
      <point x="200" y="510" type="curve"/>
      <point x="130" y="510"/>
      <point x="75" y="455"/>
      <point x="75" y="360" type="curve"/>
      <point x="75" y="140" type="line"/>
      <point x="75" y="45"/>
      <point x="130" y="-10"/>
      <point x="200" y="-10" type="curve"/>
      <point x="230" y="-10"/>
      <point x="265" y="-5"/>
      <point x="290" y="35" type="curve"/>
    </contour>
  </outline>
</glyph>
<glyph name="O.small" format="1">
  <advance width="600"/>
  <outline>
    <contour>
      <point x="300" y="460" type="curve"/>
      <point x="455" y="460"/>
      <point x="480" y="405"/>
      <point x="480" y="290" type="curve" smooth="yes"/>
      <point x="480" y="250" type="line"/>
      <point x="530" y="250" type="line"/>
      <point x="530" y="290" type="line"/>
      <point x="530" y="435"/>
      <point x="480" y="510"/>
      <point x="300" y="510" type="curve"/>
      <point x="120" y="510"/>
      <point x="70" y="435"/>
      <point x="70" y="290" type="curve"/>
      <point x="70" y="250" type="line"/>
      <point x="120" y="250" type="line"/>
      <point x="120" y="290" type="line" smooth="yes"/>
      <point x="120" y="405"/>
      <point x="145" y="460"/>
    </contour>
    <contour>
      <point x="300" y="40" type="curve"/>
      <point x="145" y="40"/>
      <point x="120" y="95"/>
      <point x="120" y="210" type="curve" smooth="yes"/>
      <point x="120" y="250" type="line"/>
      <point x="70" y="250" type="line"/>
      <point x="70" y="210" type="line"/>
      <point x="70" y="60"/>
      <point x="120" y="-10"/>
      <point x="300" y="-10" type="curve"/>
      <point x="480" y="-10"/>
      <point x="530" y="60"/>
      <point x="530" y="210" type="curve"/>
      <point x="530" y="250" type="line"/>
      <point x="480" y="250" type="line"/>
      <point x="480" y="210" type="line" smooth="yes"/>
      <point x="480" y="95"/>
      <point x="455" y="40"/>
    </contour>
    <contour>
      <point x="300" y="450" type="move" name="top"/>
    </contour>
  </outline>
</glyph>
<glyph name="Oslash.small" format="1">
  <advance width="600"/>
  <outline>
    <contour>
      <point x="50" y="0" type="line"/>
      <point x="85" y="-35" type="line"/>
      <point x="550" y="500" type="line"/>
      <point x="515" y="535" type="line"/>
    </contour>
    <component base="o"/>
  </outline>
</glyph>
<glyph name="R.small" format="1">
  <advance width="600"/>
  <outline>
    <contour>
      <point x="125" y="500" type="line"/>
      <point x="75" y="500" type="line"/>
      <point x="75" y="0" type="line"/>
      <point x="125" y="0" type="line"/>
    </contour>
    <contour>
      <point x="380" y="500" type="curve"/>
      <point x="110" y="500" type="line"/>
      <point x="110" y="450" type="line"/>
      <point x="380" y="450" type="line" smooth="yes"/>
      <point x="455" y="450"/>
      <point x="480" y="420"/>
      <point x="480" y="350" type="curve"/>
      <point x="530" y="350" type="line"/>
      <point x="530" y="445"/>
      <point x="480" y="500"/>
    </contour>
    <contour>
      <point x="380" y="210" type="line"/>
      <point x="480.0" y="210.0"/>
      <point x="530.0" y="261.333333333"/>
      <point x="530" y="350" type="curve"/>
      <point x="480" y="350" type="line"/>
      <point x="480" y="280"/>
      <point x="455" y="250"/>
      <point x="380" y="250" type="curve" smooth="yes"/>
      <point x="110" y="250" type="line"/>
      <point x="110" y="200" type="line"/>
      <point x="365" y="200" type="line"/>
    </contour>
    <contour>
      <point x="340" y="245" type="curve"/>
      <point x="340" y="200" type="line"/>
      <point x="439.047619048" y="200.0"/>
      <point x="456.368087058" y="190.87941961"/>
      <point x="470" y="100" type="curve" smooth="yes"/>
      <point x="485" y="0" type="line"/>
      <point x="535" y="0" type="line"/>
      <point x="520" y="100" type="line" smooth="yes"/>
      <point x="505" y="210"/>
      <point x="454.146341463" y="245.0"/>
    </contour>
  </outline>
</glyph>
<glyph name="bracketleft.cap" format="1">
  <advance width="200"/>
  <outline>
    <contour>
      <point x="75" y="700" type="line"/>
      <point x="75" y="0" type="line"/>
      <point x="200" y="0" type="line"/>
      <point x="200" y="50" type="line"/>
      <point x="125" y="50" type="line"/>
      <point x="125" y="650" type="line" smooth="yes"/>
      <point x="200" y="650" type="line"/>
      <point x="200" y="700" type="line"/>
    </contour>
  </outline>
</glyph>
<glyph name="e.superior" format="1">
  <advance width="400"/>
  <outline>
    <contour>
      <point x="330" y="490" type="curve"/>
      <point x="330" y="500" type="line"/>
      <point x="280" y="500" type="line"/>
      <point x="280" y="490" type="line"/>
      <point x="280.0" y="460.833333333"/>
      <point x="260.0" y="440.0"/>
      <point x="200" y="440" type="curve" smooth="yes"/>
      <point x="155" y="440"/>
      <point x="125" y="460"/>
      <point x="125" y="510" type="curve" smooth="yes"/>
      <point x="125" y="570" type="line"/>
      <point x="75" y="570" type="line"/>
      <point x="75" y="510" type="line"/>
      <point x="75" y="435"/>
      <point x="125" y="390"/>
      <point x="200" y="390" type="curve" smooth="yes"/>
      <point x="285.0" y="390.0"/>
      <point x="330.0" y="426.363636364"/>
    </contour>
    <contour>
      <point x="330" y="600" type="line"/>
      <point x="330" y="670"/>
      <point x="285" y="710"/>
      <point x="200" y="710" type="curve" smooth="yes"/>
      <point x="130" y="710"/>
      <point x="75" y="665"/>
      <point x="75" y="590" type="curve"/>
      <point x="75" y="560" type="line"/>
      <point x="125" y="560" type="line"/>
      <point x="125" y="590" type="line" smooth="yes"/>
      <point x="125" y="645"/>
      <point x="155" y="660"/>
      <point x="200" y="660" type="curve" smooth="yes"/>
      <point x="260" y="660"/>
      <point x="280" y="640"/>
      <point x="280" y="600" type="curve"/>
      <point x="280" y="560" type="line"/>
      <point x="330" y="560" type="line"/>
    </contour>
    <contour>
      <point x="90" y="530" type="line"/>
      <point x="330" y="530" type="line"/>
      <point x="330" y="575" type="line"/>
      <point x="90" y="575" type="line"/>
    </contour>
  </outline>
</glyph>
<glyph name="eight.sup" format="1">
  <advance width="400"/>
  <outline>
    <contour>
      <point x="270" y="615" type="curve" smooth="yes"/>
      <point x="270" y="580"/>
      <point x="245" y="570"/>
      <point x="200" y="570" type="curve"/>
      <point x="155" y="570"/>
      <point x="130" y="580"/>
      <point x="130" y="615" type="curve" smooth="yes"/>
      <point x="130" y="650"/>
      <point x="150" y="660"/>
      <point x="200" y="660" type="curve"/>
      <point x="250" y="660"/>
      <point x="270" y="650"/>
    </contour>
    <contour>
      <point x="270" y="485" type="curve" smooth="yes"/>
      <point x="270" y="450"/>
      <point x="250" y="440"/>
      <point x="200" y="440" type="curve"/>
      <point x="150" y="440"/>
      <point x="130" y="450"/>
      <point x="130" y="485" type="curve" smooth="yes"/>
      <point x="130" y="520"/>
      <point x="155" y="530"/>
      <point x="200" y="530" type="curve"/>
      <point x="245" y="530"/>
      <point x="270" y="520"/>
    </contour>
    <contour>
      <point x="130" y="545" type="line"/>
      <point x="104.153781765" y="536.384593922"/>
      <point x="75.0" y="510.0"/>
      <point x="75" y="475" type="curve"/>
      <point x="75" y="415"/>
      <point x="115" y="390"/>
      <point x="200" y="390" type="curve"/>
      <point x="285" y="390"/>
      <point x="325" y="415"/>
      <point x="325" y="475" type="curve"/>
      <point x="325.0" y="510.0"/>
      <point x="299.73263503" y="540.75248071"/>
      <point x="270" y="545" type="curve"/>
      <point x="270" y="555" type="line"/>
      <point x="299.73263503" y="559.24751929"/>
      <point x="325.0" y="590.0"/>
      <point x="325" y="625" type="curve"/>
      <point x="325" y="685"/>
      <point x="285" y="710"/>
      <point x="200" y="710" type="curve"/>
      <point x="115" y="710"/>
      <point x="75" y="685"/>
      <point x="75" y="625" type="curve"/>
      <point x="75.0" y="590.0"/>
      <point x="104.153781765" y="563.615406078"/>
      <point x="130" y="555" type="curve"/>
    </contour>
  </outline>
</glyph>
<glyph name="four.sup" format="1">
  <advance width="400"/>
  <outline>
    <contour>
      <point x="325" y="350" type="line"/>
      <point x="325" y="550" type="line"/>
      <point x="310" y="550" type="line"/>
      <point x="275" y="515" type="line"/>
      <point x="275" y="350" type="line"/>
    </contour>
    <contour>
      <point x="325" y="400" type="line"/>
      <point x="325" y="450" type="line"/>
      <point x="170" y="450" type="line"/>
      <point x="135" y="440" type="line"/>
      <point x="130" y="450" type="line"/>
      <point x="160" y="475" type="line"/>
      <point x="305" y="685" type="line" smooth="yes"/>
      <point x="305" y="700" type="line"/>
      <point x="250" y="700" type="line"/>
      <point x="75" y="440" type="line"/>
      <point x="75" y="400" type="line"/>
    </contour>
  </outline>
</glyph>
<glyph name="g.alt" format="1">
  <advance width="600"/>
  <outline>
    <contour>
      <point x="325" y="350" type="curve"/>
      <point x="325" y="370" type="line"/>
      <point x="325" y="460"/>
      <point x="275" y="510"/>
      <point x="200" y="510" type="curve"/>
      <point x="125" y="510"/>
      <point x="75" y="460"/>
      <point x="75" y="370" type="curve"/>
      <point x="75" y="350" type="line"/>
      <point x="75" y="270"/>
      <point x="125" y="220"/>
      <point x="200" y="220" type="curve"/>
      <point x="275" y="220"/>
      <point x="325" y="270"/>
    </contour>
    <contour>
      <point x="190" y="255" type="line"/>
      <point x="115.0" y="255.0"/>
      <point x="75.0" y="224.2"/>
      <point x="75" y="145" type="curve" smooth="yes"/>
      <point x="75.0" y="70.7142857143"/>
      <point x="131.0" y="25.0"/>
      <point x="215" y="25" type="curve"/>
      <point x="310" y="25" type="line"/>
      <point x="310" y="75" type="line"/>
      <point x="215" y="75" type="line" smooth="yes"/>
      <point x="143.0" y="75"/>
      <point x="125.0" y="105.0"/>
      <point x="125" y="150" type="curve" smooth="yes"/>
      <point x="125.0" y="202.5"/>
      <point x="140" y="220"/>
      <point x="190" y="220" type="curve"/>
      <point x="210" y="220" type="line"/>
      <point x="210" y="255" type="line"/>
    </contour>
    <contour>
      <point x="205" y="25" type="curve" smooth="yes"/>
      <point x="385" y="25" type="line" smooth="yes"/>
      <point x="465" y="25"/>
      <point x="485.0" y="-9.0"/>
      <point x="485" y="-60" type="curve"/>
      <point x="485.0" y="-114.0"/>
      <point x="465" y="-150"/>
      <point x="385" y="-150" type="curve" smooth="yes"/>
      <point x="215" y="-150" type="line" smooth="yes"/>
      <point x="135.0" y="-150"/>
      <point x="115.0" y="-110.0"/>
      <point x="115" y="-50" type="curve"/>
      <point x="115.0" y="-5.0"/>
      <point x="133.0" y="25"/>
    </contour>
    <contour>
      <point x="385" y="75" type="curve"/>
      <point x="205" y="75" type="line"/>
      <point x="115" y="75"/>
      <point x="65.0" y="26.6666666667"/>
      <point x="65" y="-70" type="curve"/>
      <point x="65.0" y="-140.0"/>
      <point x="115" y="-200"/>
      <point x="215" y="-200" type="curve"/>
      <point x="385" y="-200" type="line"/>
      <point x="475.0" y="-200.0"/>
      <point x="535" y="-150"/>
      <point x="535" y="-60" type="curve"/>
      <point x="535" y="30"/>
      <point x="475.0" y="75.0"/>
    </contour>
    <contour>
      <point x="295" y="420" type="curve"/>
      <point x="325" y="370" type="line"/>
      <point x="325.0" y="442.0"/>
      <point x="355.0" y="460.0"/>
      <point x="400" y="460" type="curve" smooth="yes"/>
      <point x="445.0" y="460.0"/>
      <point x="475.0" y="440.0"/>
      <point x="475" y="360" type="curve"/>
      <point x="475" y="200" type="line"/>
      <point x="525" y="200" type="line"/>
      <point x="525" y="390" type="line"/>
      <point x="525.0" y="460.0"/>
      <point x="480" y="510"/>
      <point x="410" y="510" type="curve" smooth="yes"/>
      <point x="340" y="510"/>
      <point x="295.0" y="480.0"/>
    </contour>
    <contour>
      <point x="280" y="370" type="curve" smooth="yes"/>
      <point x="280" y="350" type="line" smooth="yes"/>
      <point x="280" y="299.473684211"/>
      <point x="250.0" y="270.0"/>
      <point x="200" y="270" type="curve"/>
      <point x="150.0" y="270.0"/>
      <point x="120" y="299.473684211"/>
      <point x="120" y="350" type="curve" smooth="yes"/>
      <point x="120" y="370" type="line" smooth="yes"/>
      <point x="120" y="429.5"/>
      <point x="150.0" y="455.0"/>
      <point x="200" y="455" type="curve"/>
      <point x="250.0" y="455.0"/>
      <point x="280" y="429.5"/>
    </contour>
  </outline>
</glyph>
<glyph name="hashedlargesquare" format="1">
  <advance width="1000"/>
  <outline>
    <contour>
      <point x="100" y="0" type="line"/>
      <point x="900" y="0" type="line"/>
      <point x="900" y="100" type="line"/>
      <point x="100" y="100" type="line"/>
    </contour>
    <contour>
      <point x="100" y="200" type="line"/>
      <point x="900" y="200" type="line"/>
      <point x="900" y="300" type="line"/>
      <point x="100" y="300" type="line"/>
    </contour>
    <contour>
      <point x="100" y="400" type="line"/>
      <point x="900" y="400" type="line"/>
      <point x="900" y="500" type="line"/>
      <point x="100" y="500" type="line"/>
    </contour>
    <contour>
      <point x="550" y="-150" type="line"/>
      <point x="550" y="650" type="line"/>
      <point x="450" y="650" type="line"/>
      <point x="450" y="-150" type="line"/>
    </contour>
    <contour>
      <point x="350" y="-150" type="line"/>
      <point x="350" y="650" type="line"/>
      <point x="250" y="650" type="line"/>
      <point x="250" y="-150" type="line"/>
    </contour>
    <contour>
      <point x="750" y="-150" type="line"/>
      <point x="750" y="650" type="line"/>
      <point x="650" y="650" type="line"/>
      <point x="650" y="-150" type="line"/>
    </contour>
    <component base="whitelargesquare"/>
  </outline>
</glyph>
<glyph name="horizontalfill" format="1">
  <advance width="1000"/>
  <outline>
    <contour>
      <point x="1000" y="75" type="line"/>
      <point x="0" y="75" type="line"/>
      <point x="0" y="25" type="line"/>
      <point x="1000" y="25" type="line"/>
    </contour>
    <contour>
      <point x="1000" y="-125" type="line"/>
      <point x="0" y="-125" type="line"/>
      <point x="0" y="-175" type="line"/>
      <point x="1000" y="-175" type="line"/>
    </contour>
    <contour>
      <point x="1000" y="475" type="line"/>
      <point x="0" y="475" type="line"/>
      <point x="0" y="425" type="line"/>
      <point x="1000" y="425" type="line"/>
    </contour>
    <contour>
      <point x="1000" y="275" type="line"/>
      <point x="0" y="275" type="line"/>
      <point x="0" y="225" type="line"/>
      <point x="1000" y="225" type="line"/>
    </contour>
    <contour>
      <point x="1000" y="675" type="line"/>
      <point x="0" y="675" type="line"/>
      <point x="0" y="625" type="line"/>
      <point x="1000" y="625" type="line"/>
    </contour>
  </outline>
</glyph>
<glyph name="i.superior" format="1">
  <advance width="200"/>
  <outline>
    <contour>
      <point x="125" y="750" type="line"/>
      <point x="125" y="800" type="line"/>
      <point x="75" y="800" type="line"/>
      <point x="75" y="750" type="line"/>
    </contour>
    <contour>
      <point x="125" y="700" type="line"/>
      <point x="75" y="700" type="line"/>
      <point x="75" y="400" type="line"/>
      <point x="125" y="400" type="line"/>
    </contour>
  </outline>
</glyph>
<glyph name="n.superior" format="1">
  <advance width="400"/>
  <outline>
    <contour>
      <point x="75" y="400" type="line"/>
      <point x="125" y="400" type="line"/>
      <point x="125" y="650" type="line"/>
      <point x="115" y="650" type="line"/>
      <point x="105" y="700" type="line"/>
      <point x="75" y="700" type="line"/>
    </contour>
    <contour>
      <point x="125" y="650" type="curve"/>
      <point x="125" y="565" type="line"/>
      <point x="125.0" y="634.090909091"/>
      <point x="150.0" y="660.0"/>
      <point x="200" y="660" type="curve" smooth="yes"/>
      <point x="250.0" y="660.0"/>
      <point x="275" y="634.090909091"/>
      <point x="275" y="565" type="curve" smooth="yes"/>
      <point x="275" y="400" type="line"/>
      <point x="325" y="400" type="line"/>
      <point x="325" y="560" type="line" smooth="yes"/>
      <point x="325" y="660.0"/>
      <point x="292.647058824" y="710.0"/>
      <point x="215" y="710" type="curve"/>
      <point x="164.130434783" y="710.0"/>
      <point x="133.661986608" y="684.647946434"/>
    </contour>
  </outline>
</glyph>
<glyph name="o.superior" format="1">
  <advance width="400"/>
  <outline>
    <contour>
      <point x="285" y="550" type="curve"/>
      <point x="285.0" y="470.0"/>
      <point x="260.714285714" y="440.0"/>
      <point x="200" y="440" type="curve"/>
      <point x="139.285714286" y="440.0"/>
      <point x="115.0" y="470.0"/>
      <point x="115" y="550" type="curve"/>
      <point x="115.0" y="630.0"/>
      <point x="139.285714286" y="660.0"/>
      <point x="200" y="660" type="curve"/>
      <point x="260.714285714" y="660.0"/>
      <point x="285.0" y="630.0"/>
    </contour>
    <contour>
      <point x="335" y="550" type="curve"/>
      <point x="335.0" y="660.0"/>
      <point x="284.375" y="710.0"/>
      <point x="200" y="710" type="curve"/>
      <point x="115.625" y="710.0"/>
      <point x="65.0" y="660.0"/>
      <point x="65" y="550" type="curve"/>
      <point x="65.0" y="440.0"/>
      <point x="115.625" y="390.0"/>
      <point x="200" y="390" type="curve"/>
      <point x="284.375" y="390.0"/>
      <point x="335.0" y="440.0"/>
    </contour>
  </outline>
</glyph>
<glyph name="parenleft.cap" format="1">
  <advance width="200"/>
  <outline>
    <contour>
      <point x="75" y="560" type="curve"/>
      <point x="75" y="140" type="line"/>
      <point x="75" y="40"/>
      <point x="125" y="0"/>
      <point x="200" y="0" type="curve"/>
      <point x="200" y="50" type="line"/>
      <point x="155" y="50"/>
      <point x="125" y="70"/>
      <point x="125" y="140" type="curve" smooth="yes"/>
      <point x="125" y="560" type="line" smooth="yes"/>
      <point x="125" y="630"/>
      <point x="155.0" y="650.0"/>
      <point x="200" y="650" type="curve"/>
      <point x="200" y="700" type="line"/>
      <point x="125" y="700"/>
      <point x="75" y="660"/>
    </contour>
  </outline>
</glyph>
<glyph name="roundeddot" format="1">
  <advance width="200"/>
  <outline>
    <contour>
      <point x="100" y="65" type="curve" smooth="yes"/>
      <point x="80" y="65"/>
      <point x="65" y="50"/>
      <point x="65" y="30" type="curve" smooth="yes"/>
      <point x="65" y="10"/>
      <point x="80" y="-5"/>
      <point x="100" y="-5" type="curve" smooth="yes"/>
      <point x="120" y="-5"/>
      <point x="135" y="10"/>
      <point x="135" y="30" type="curve" smooth="yes"/>
      <point x="135" y="50"/>
      <point x="120" y="65"/>
    </contour>
  </outline>
</glyph>
<glyph name="s.superior" format="1">
  <advance width="400"/>
  <outline>
    <contour>
      <point x="130" y="620" type="curve" smooth="yes"/>
      <point x="130.0" y="652.727272727"/>
      <point x="155.0" y="665.0"/>
      <point x="200" y="665" type="curve" smooth="yes"/>
      <point x="250.0" y="665.0"/>
      <point x="270.0" y="641.0"/>
      <point x="270" y="605" type="curve"/>
      <point x="270" y="600" type="line"/>
      <point x="320" y="600" type="line"/>
      <point x="320" y="605" type="line"/>
      <point x="320.0" y="675.0"/>
      <point x="280.0" y="710.0"/>
      <point x="200" y="710" type="curve" smooth="yes"/>
      <point x="133.793103448" y="710.0"/>
      <point x="80" y="680"/>
      <point x="80" y="620" type="curve" smooth="yes"/>
      <point x="80" y="565"/>
      <point x="109.854348041" y="540.016183551"/>
      <point x="200" y="530" type="curve" smooth="yes"/>
      <point x="255.126647219" y="524.988486616"/>
      <point x="275.0" y="511.25"/>
      <point x="275" y="480" type="curve" smooth="yes"/>
      <point x="275.0" y="447.272727273"/>
      <point x="245.0" y="435.0"/>
      <point x="200" y="435" type="curve" smooth="yes"/>
      <point x="145.0" y="435.0"/>
      <point x="125.0" y="459.0"/>
      <point x="125" y="495" type="curve"/>
      <point x="125" y="500" type="line"/>
      <point x="75" y="500" type="line"/>
      <point x="75" y="495" type="line"/>
      <point x="75.0" y="425.0"/>
      <point x="116.666666667" y="390.0"/>
      <point x="200" y="390" type="curve" smooth="yes"/>
      <point x="266.666666667" y="390.0"/>
      <point x="325.0" y="421.5"/>
      <point x="325" y="480" type="curve"/>
      <point x="325.0" y="547.058823529"/>
      <point x="285.081620485" y="564.99039759"/>
      <point x="200" y="575" type="curve" smooth="yes"/>
      <point x="144.771434788" y="580.020778656"/>
      <point x="130.0" y="587.857142857"/>
    </contour>
  </outline>
</glyph>
<glyph name="seven.sup" format="1">
  <advance width="400"/>
  <outline>
    <contour>
      <point x="75" y="700" type="line"/>
      <point x="75" y="650" type="line"/>
      <point x="235" y="650" type="line"/>
      <point x="270" y="660" type="line"/>
      <point x="275" y="650" type="line"/>
      <point x="245" y="625" type="line"/>
      <point x="100" y="415" type="line" smooth="yes"/>
      <point x="100" y="400" type="line"/>
      <point x="155" y="400" type="line"/>
      <point x="335" y="670" type="line"/>
      <point x="335" y="700" type="line"/>
    </contour>
  </outline>
</glyph>
<glyph name="t.superior" format="1">
  <advance width="400"/>
  <outline>
    <contour>
      <point x="350" y="450" type="line"/>
      <point x="190" y="450" type="line"/>
      <point x="150.0" y="450.0"/>
      <point x="125.0" y="470.833333333"/>
      <point x="125" y="525" type="curve"/>
      <point x="125" y="650" type="line"/>
      <point x="350" y="650" type="line"/>
      <point x="350" y="700" type="line"/>
      <point x="125" y="700" type="line"/>
      <point x="125" y="800" type="line"/>
      <point x="95" y="800" type="line"/>
      <point x="75" y="690" type="line"/>
      <point x="75" y="535" type="line"/>
      <point x="75.0" y="445.0"/>
      <point x="116.666666667" y="400.0"/>
      <point x="200" y="400" type="curve"/>
      <point x="350" y="400" type="line"/>
    </contour>
  </outline>
</glyph>
<glyph name="u.superior" format="1">
  <advance width="400"/>
  <outline>
    <contour>
      <point x="325" y="700" type="line"/>
      <point x="275" y="700" type="line"/>
      <point x="275" y="450" type="line"/>
      <point x="285" y="450" type="line"/>
      <point x="295" y="400" type="line"/>
      <point x="325" y="400" type="line"/>
    </contour>
    <contour>
      <point x="275" y="450" type="curve"/>
      <point x="275" y="535" type="line"/>
      <point x="275" y="465"/>
      <point x="250" y="440"/>
      <point x="200" y="440" type="curve" smooth="yes"/>
      <point x="150" y="440"/>
      <point x="125" y="465"/>
      <point x="125" y="535" type="curve" smooth="yes"/>
      <point x="125" y="700" type="line"/>
      <point x="75" y="700" type="line"/>
      <point x="75" y="540" type="line" smooth="yes"/>
      <point x="75" y="440"/>
      <point x="105" y="390"/>
      <point x="185" y="390" type="curve"/>
      <point x="235" y="390"/>
      <point x="265" y="415"/>
    </contour>
  </outline>
</glyph>
<glyph name="uprighttolowerleftfill" format="1">
  <advance width="1000"/>
  <outline>
    <contour>
      <point x="1000" y="700" type="line"/>
      <point x="930" y="700" type="line"/>
      <point x="0" y="-230" type="line"/>
      <point x="0" y="-300" type="line"/>
    </contour>
    <contour>
      <point x="930" y="-300" type="line"/>
      <point x="1000" y="-300" type="line"/>
      <point x="1000" y="-230" type="line"/>
    </contour>
    <contour>
      <point x="1000" y="365" type="line"/>
      <point x="1000" y="435" type="line"/>
      <point x="265" y="-300" type="line"/>
      <point x="335" y="-300" type="line"/>
    </contour>
    <contour>
      <point x="335" y="700" type="line"/>
      <point x="265" y="700" type="line"/>
      <point x="0" y="435" type="line"/>
      <point x="0" y="365" type="line"/>
    </contour>
    <contour>
      <point x="1000" y="35" type="line"/>
      <point x="1000" y="105" type="line"/>
      <point x="595" y="-300" type="line"/>
      <point x="665" y="-300" type="line"/>
    </contour>
    <contour>
      <point x="665" y="700" type="line"/>
      <point x="595" y="700" type="line"/>
      <point x="0" y="105" type="line"/>
      <point x="0" y="35" type="line"/>
    </contour>
  </outline>
</glyph>
<glyph name="verticalfill" format="1">
  <advance width="1000"/>
  <outline>
    <contour>
      <point x="325" y="-300" type="line"/>
      <point x="325" y="700" type="line"/>
      <point x="275" y="700" type="line"/>
      <point x="275" y="-300" type="line"/>
    </contour>
    <contour>
      <point x="125" y="-300" type="line"/>
      <point x="125" y="700" type="line"/>
      <point x="75" y="700" type="line"/>
      <point x="75" y="-300" type="line"/>
    </contour>
    <contour>
      <point x="725" y="-300" type="line"/>
      <point x="725" y="700" type="line"/>
      <point x="675" y="700" type="line"/>
      <point x="675" y="-300" type="line"/>
    </contour>
    <contour>
      <point x="525" y="-300" type="line"/>
      <point x="525" y="700" type="line"/>
      <point x="475" y="700" type="line"/>
      <point x="475" y="-300" type="line"/>
    </contour>
    <contour>
      <point x="925" y="-300" type="line"/>
      <point x="925" y="700" type="line"/>
      <point x="875" y="700" type="line"/>
      <point x="875" y="-300" type="line"/>
    </contour>
  </outline>
</glyph>
<glyph name="w.superior" format="1">
  <advance width="600"/>
  <outline>
    <contour>
      <point x="380" y="400" type="curve"/>
      <point x="420" y="400" type="line"/>
      <point x="490" y="485"/>
      <point x="525" y="590"/>
      <point x="525" y="680" type="curve" smooth="yes"/>
      <point x="525" y="700" type="line"/>
      <point x="475" y="700" type="line"/>
      <point x="475" y="680" type="line" smooth="yes"/>
      <point x="475" y="595"/>
      <point x="450" y="530"/>
      <point x="405" y="450" type="curve" smooth="yes"/>
      <point x="395" y="450" type="line"/>
      <point x="350" y="530"/>
      <point x="325" y="595"/>
      <point x="325" y="680" type="curve" smooth="yes"/>
      <point x="325" y="700" type="line"/>
      <point x="275" y="700" type="line"/>
      <point x="275" y="680" type="line" smooth="yes"/>
      <point x="275" y="595"/>
      <point x="250" y="530"/>
      <point x="205" y="450" type="curve" smooth="yes"/>
      <point x="195" y="450" type="line"/>
      <point x="150" y="530"/>
      <point x="125" y="595"/>
      <point x="125" y="680" type="curve" smooth="yes"/>
      <point x="125" y="700" type="line"/>
      <point x="75" y="700" type="line"/>
      <point x="75" y="680" type="line" smooth="yes"/>
      <point x="75" y="590"/>
      <point x="110" y="485"/>
      <point x="180" y="400" type="curve"/>
      <point x="220" y="400" type="line"/>
      <point x="258.279683961" y="449.216736521"/>
      <point x="280.427415008" y="501.709660032"/>
      <point x="295" y="560" type="curve"/>
      <point x="295" y="560"/>
      <point x="305" y="560"/>
      <point x="305" y="560" type="curve" smooth="yes"/>
      <point x="319.572584992" y="501.709660032"/>
      <point x="341.720316039" y="449.216736521"/>
    </contour>
  </outline>
</glyph>
<glyph name="x.superior" format="1">
  <advance width="400"/>
  <outline>
    <contour>
      <point x="205" y="525" type="line"/>
      <point x="250" y="485"/>
      <point x="275" y="458.684210526"/>
      <point x="275" y="420" type="curve" smooth="yes"/>
      <point x="275" y="400" type="line"/>
      <point x="325" y="400" type="line"/>
      <point x="325" y="420" type="line" smooth="yes"/>
      <point x="325" y="465"/>
      <point x="290" y="520"/>
      <point x="240" y="545" type="curve"/>
      <point x="240" y="545"/>
      <point x="240" y="555"/>
      <point x="240" y="555" type="curve" smooth="yes"/>
      <point x="290" y="580"/>
      <point x="325" y="635"/>
      <point x="325" y="680" type="curve" smooth="yes"/>
      <point x="325" y="700" type="line"/>
      <point x="275" y="700" type="line"/>
      <point x="275" y="680" type="line" smooth="yes"/>
      <point x="275" y="641.315789474"/>
      <point x="250" y="615"/>
      <point x="205" y="575" type="curve"/>
      <point x="195" y="575" type="line"/>
      <point x="150" y="615"/>
      <point x="125" y="641.315789474"/>
      <point x="125" y="680" type="curve" smooth="yes"/>
      <point x="125" y="700" type="line"/>
      <point x="75" y="700" type="line"/>
      <point x="75" y="680" type="line" smooth="yes"/>
      <point x="75" y="635"/>
      <point x="110" y="580"/>
      <point x="160" y="555" type="curve" smooth="yes"/>
      <point x="160" y="555"/>
      <point x="160" y="545"/>
      <point x="160" y="545" type="curve"/>
      <point x="110" y="520"/>
      <point x="75" y="465"/>
      <point x="75" y="420" type="curve" smooth="yes"/>
      <point x="75" y="400" type="line"/>
      <point x="125" y="400" type="line"/>
      <point x="125" y="420" type="line" smooth="yes"/>
      <point x="125" y="458.684210526"/>
      <point x="150" y="485"/>
      <point x="195" y="525" type="curve"/>
    </contour>
  </outline>
</glyph>
<glyph name="y.superior" format="1">
  <advance width="400"/>
  <outline>
    <contour>
      <point x="225" y="450" type="line"/>
      <point x="175" y="450" type="line"/>
      <point x="175" y="300" type="line"/>
      <point x="225" y="300" type="line"/>
    </contour>
    <contour>
      <point x="220" y="400" type="line"/>
      <point x="290" y="485"/>
      <point x="325" y="590"/>
      <point x="325" y="680" type="curve" smooth="yes"/>
      <point x="325" y="700" type="line"/>
      <point x="275" y="700" type="line"/>
      <point x="275" y="680" type="line" smooth="yes"/>
      <point x="275" y="595"/>
      <point x="250" y="530"/>
      <point x="205" y="450" type="curve" smooth="yes"/>
      <point x="205" y="450"/>
      <point x="195" y="450"/>
      <point x="195" y="450" type="curve"/>
      <point x="150" y="530"/>
      <point x="125" y="595"/>
      <point x="125" y="680" type="curve" smooth="yes"/>
      <point x="125" y="700" type="line"/>
      <point x="75" y="700" type="line"/>
      <point x="75" y="680" type="line" smooth="yes"/>
      <point x="75" y="590"/>
      <point x="110" y="485"/>
      <point x="180" y="400" type="curve"/>
    </contour>
  </outline>
</glyph>
<glyph name="zero.slash" format="1">
  <advance width="600"/>
  <outline>
    <contour>
      <point x="120" y="70" type="line"/>
      <point x="150" y="50" type="line"/>
      <point x="480" y="630" type="line"/>
      <point x="450" y="650" type="line"/>
    </contour>
    <component base="zero"/>
  </outline>
</glyph>
